<svg id="Layer_5" data-name="Layer 5" xmlns="http://www.w3.org/2000/svg" xmlns:xlink="http://www.w3.org/1999/xlink" viewBox="0 0 1922.06 1081.19"><defs><style>.cls-1{fill:none;}.cls-2{opacity:0.99;}.cls-3{fill:#85d3fd;}.cls-4{fill:#522c2d;}.cls-5{fill:#00a833;}.cls-6{fill:#3dbd64;}.cls-7{fill:#3d1213;}.cls-8{fill:#6b5146;}.cls-9{fill:#563132;}.cls-10{fill:#452e2e;}.cls-11{fill:#230f00;}.cls-12{clip-path:url(#clip-path);}.cls-13{fill:#8f8f8f;}.cls-14{fill:#90908f;}.cls-15{fill:#909090;}.cls-16{fill:#919190;}.cls-17{fill:#929291;}.cls-18{fill:#939392;}.cls-19{fill:#949492;}.cls-20{fill:#949493;}.cls-21{fill:#959593;}.cls-22{fill:#969694;}.cls-23{fill:#979794;}.cls-24{fill:#979795;}.cls-25{fill:#989895;}.cls-26{fill:#999996;}.cls-27{fill:#9a9a96;}.cls-28{fill:#9a9a97;}.cls-29{fill:#9b9b97;}.cls-30{fill:#9c9c98;}.cls-31{fill:#9d9d98;}.cls-32{fill:#9d9d99;}.cls-33{fill:#9e9e99;}.cls-34{fill:#9f9f9a;}.cls-35{fill:#a0a09a;}.cls-36{fill:#a0a09b;}.cls-37{fill:#a1a19b;}.cls-38{fill:#a2a29c;}.cls-39{fill:#a3a39c;}.cls-40{fill:#a4a49d;}.cls-41{fill:#a5a59e;}.cls-42{fill:#a6a69e;}.cls-43{fill:#a6a69f;}.cls-44{fill:#a7a79f;}.cls-45{fill:#a8a8a0;}.cls-46{fill:#a9a9a1;}.cls-47{fill:#aaaaa1;}.cls-48{fill:#ababa2;}.cls-49{fill:#acaca3;}.cls-50{fill:#adada3;}.cls-51{fill:#aeaea4;}.cls-52{fill:#afafa5;}.cls-53{fill:#b0b0a5;}.cls-54{fill:#b1b1a6;}.cls-55{fill:#b2b2a7;}.cls-56{fill:#b3b3a7;}.cls-57{fill:#b4b4a8;}.cls-58{fill:#b5b5a9;}.cls-59{fill:#b6b6aa;}.cls-60{fill:#b7b7aa;}.cls-61{fill:#b9b9ab;}.cls-62{fill:#babaac;}.cls-63{fill:#bbbbad;}.cls-64{fill:#bcbcad;}.cls-65{fill:#bdbdae;}.cls-66{fill:#bebeaf;}.cls-67{fill:#bfbfb0;}.cls-68{fill:#c1c1b1;}.cls-69{fill:#c2c2b1;}.cls-70{fill:#c3c3b2;}.cls-71{fill:#c4c4b3;}.cls-72{fill:#c5c5b4;}.cls-73{fill:#c7c7b5;}.cls-74{fill:#c8c8b5;}.cls-75{fill:#c9c9b6;}.cls-76{fill:#cacab7;}.cls-77{fill:#ccccb8;}.cls-78{fill:#cdcdb9;}.cls-79{fill:#ceceba;}.cls-80{fill:#d0d0bb;}.cls-81{fill:#d1d1bb;}.cls-82{fill:#d2d2bc;}.cls-83{fill:#d4d4bd;}.cls-84{fill:#d5d5be;}.cls-85{fill:#d6d6bf;}.cls-86{fill:#d8d8c0;}.cls-87{fill:#d9d9c1;}.cls-88{fill:#dadac2;}.cls-89{fill:#dcdcc3;}.cls-90{fill:#ddddc4;}.cls-91{fill:#dedec5;}.cls-92{fill:#e0e0c6;}.cls-93{fill:#e1e1c7;}.cls-94{fill:#e3e3c8;}.cls-95{fill:#e4e4c9;}.cls-96{fill:#e6e6ca;}.cls-97{fill:#e7e7cb;}.cls-98{fill:#e9e9cc;}.cls-99{fill:#eaeacd;}.cls-100{fill:#ececce;}.cls-101{fill:#ededcf;}.cls-102{fill:#efefd0;}.cls-103{fill:#f0f0d1;}.cls-104{fill:#f2f2d2;}.cls-105{fill:#777776;}</style><clipPath id="clip-path"><path class="cls-1" d="M1921.36,768.61V1080H381.21l-379.85.59.17-473.66h0c46.9-2.1,120.5-5.22,210.74-8.26,69.94-2.35,247.49-7.95,499.7-10.5,164.06-1.67,295.33-1.49,456.85-1,81.17.22,166.68.58,291.46,1.33,128.62.76,284,1.84,461.08,3.41"/></clipPath></defs><g class="cls-2"><rect class="cls-3" x="0.96" y="1.19" width="1920" height="1080"/></g><path class="cls-4" d="M1,508C6.27,521,38.61,519.4,63.12,518c40.32-2.34,68.29-4,75.14-20,3.53-8.24-.16-12.88-5.3-37.12-.75-3.53-1.64-8.53-1.33-43.75.46-51.09.81-77,6.63-94.13,8-23.53,18.3-35.3,21.22-38.45a97.7,97.7,0,0,1,31.2-22.19c15.47-7,19.11-3.78,34.28-10,17.33-7.06,15.62-12.46,36.6-24.86s40.29-17.38,50.38-19.89a216.57,216.57,0,0,1,31.82-5.3c23.61-2.45,40.06-1.18,61,0,57.18,3.21,59.7,5.24,78.22,2.65,9.67-1.35,17-3.13,36.88-5.65,13.2-1.68,23.33-3,36-3.63,13.29-.7,36.24-3.27,63.64,2.65,13.09,2.83,22.61,6.46,39.78,6.63,17.52.17,29.14-3.41,34.47-5.31,14.26-5.08,25.81-13.28,25.19-14.58-.82-1.71-21.13,11.52-48.25,12.84-16.32.8-19.5-6.94-45-8.8-11.47-.83-21.26-.36-21.48-2.15-.18-1.49,8-3.61,16-6.3,28.37-9.5,27-17,48.08-22.32,9.72-2.46,23.69-6,34.34-6.3a31,31,0,0,0,12.59-2.86,23,23,0,0,0,7.44-5.15c6-6.53,6.83-16.85,5-17.62s-3.9,9.32-13.55,15.9c-5.83,4-8.55,2.66-34.35,6.3-16.56,2.34-21.27,3.71-26.32,6.3a77.06,77.06,0,0,0-12.6,7.44c-3,2.08-8.12,4.25-18.31,8.58a142.41,142.41,0,0,1-22.9,7.44c-10.59,2.53-18.69,3.22-28,4a94,94,0,0,1-11.21.46c-6.35-.16-7.42-.85-14.28-1.25a122.57,122.57,0,0,0-13.53,0c-3.17.16-2.58.25-15.78,1.51a108.86,108.86,0,0,1-12,.75,83.61,83.61,0,0,1-8.52-.5c-4.72-.5-13-.69-29.39-1-10.61-.24-18.41-.36-29.92-.53-23.46-.34-35.26-.52-38.31-.52-17.9,0-15.3.37-39.89.52-26.63.17-39.94.25-43.56,0-19.1-1.3-18.81-.11-21,0-26.72,1.4-46.08,8.9-46.16,8.63s25.31-7.33,54.45-17.12c12.67-4.26,20.25-6.86,31-11,16-6.21,24.08-9.32,26.16-10.32,7.1-3.43,12-6.38,20-6.89a67.3,67.3,0,0,1,12.39.69,121.75,121.75,0,0,1,14.45,2.75c15.92,3.69,23.88,5.53,31.67,5.51a68.14,68.14,0,0,1,17.16,2.63,15.26,15.26,0,0,1,3.5,1.5,32.42,32.42,0,0,1,10.32,9.64c1.66,2.62,2.61,5.19,5.66,7.12,1.64,1,2.75,1.17,6.36,2,8.47,2,11.91,3.47,12.16,2.91.46-1-10.94-6-10.31-7.93.43-1.28,5.6-.33,13.75.26,8.4.62,14.39.4,26.36-.06,11-.41,15.6-1.14,20.52-3.29a76.38,76.38,0,0,0,7-3.67c4.79-2.7,13.59-8,13.19-8.79-.59-1.19-21,9.92-37.7,10.26-4.86.1-10,0-10,0-6.09-.1-6.55-.32-13.74-.52-5.62-.16-6.46-.06-11.9-.27-9-.35-10.55-.78-11.89-1.32A31.35,31.35,0,0,1,470,159c-2.71-2.35-3.58-3.79-6.35-5s-5.29-1.19-5.28-1.59,3.62-.94,7.93-1c6.34-.17,9.28.53,15.32,1,8.36.73,7.54-.2,17.44.53,6.27.47,7.26.89,13.13,1.14a113.45,113.45,0,0,0,12,0c12.41-.71,16.15-3.51,32.88-4.88l3.12-.22a269.2,269.2,0,0,0,32.49-4c9.22-1.83,19.67-4.8,19.49-5.76-.22-1.22-17.91.4-21.17.74-.54.05-1.76.2-3.44.27-3.38.15-5.73-.15-14.15.14-.7,0-4.62.17-8.8.42-9.17.56-15.07,1.38-21.36,2.1-6.71.77-14.8,1.7-23.88,2.09-9.45.41-9.41-.21-31.42-.42-10-.09-15-.14-21.36,0-4.82.11-11.7.33-21.79.42-7.18.07-11.53,0-17.17-1.25a35.75,35.75,0,0,1-11.73-5c-2.8-1.86-5.33-3.55-5-5,.69-3.37,15.57-3,16.76-2.93,8,.25,9.39,1.71,15.5,1.26,5-.37,6.32-1.51,13-3.35,9.27-2.58,11.15-1.61,26.81-4.19,3.49-.58,9.79-1.68,17.17-3.36,14.66-3.31,14.87-4.62,28.07-7.54,13.85-3,12.53-1.36,23.46-4.18,4.37-1.13,7.32-2.11,11.73-1.68,5.22.51,5.78,2.33,13.4,4.19,4.78,1.16,4.74.49,13,2.09,4.29.84,4.86,1.13,9.63,2.1,5.38,1.09,8.44,1.49,12.15,2.09,9.83,1.6,10.94,2.49,31.08,6.73,4.25.89,6.43,1.35,9.18,1.86,3.24.6,10.84,2,19.32,2.84,9.21.94,23.36,1.64,23.48.59.16-1.33-22.59-6.27-43.28-8.67a142.81,142.81,0,0,1-16.74-2.79c-11.14-2.58-20.1-6.12-19.92-6.77.22-.81,13.67,4.71,32.67,4,11.53-.45,10.32-2.62,20.45-2.88,17.62-.43,21.28,6.16,40,5.31a37.69,37.69,0,0,0,18.29-5c4.9-3,8.69-7,8.21-7.69-.67-1-8.6,6.57-21.27,8.3-6,.83-10.92.06-19.2-1.24s-12-2.7-16.73-3.71c-12.7-2.74-14.52,1.37-34.56,1.77,0,0-17,.25-39.44-6.37-7.1-2.1-7.17-3.26-7.17-3.59,0-3,14.66-4.73,40.9-11.77,5.86-1.57,10.63-3,13.74-3.89C679.73,78.4,694.3,75,704.7,69.33a83.33,83.33,0,0,1,12.75-6,78.56,78.56,0,0,1,17.13-4c11.95-1.57,15.91-.28,25.1-.79,4-.22,38.84-2.49,46.22-19.13,2.27-5.12,2.08-5.22,5.18-8.36,7.76-7.87,16.45-4.34,33.09-11.49,4.84-2.08,3.73-2.22,11.93-6C868.18,7.92,876.16,5.61,876,5.19c-.19-.6-10.63,1.88-21.19,5.56-13.18,4.58-12.38,6.09-22,8.75-10.66,2.95-13.53,1.62-20.88,5.62a48.93,48.93,0,0,0-11.45,8.75c-4.22,4.35-4.36,6.15-7,9-4.74,5.16-11.46,6.35-24.7,8.54a237.45,237.45,0,0,1-26.5,2.47c-10.79.57-11.33.82-14.59,1.34-9.38,1.52-14.81,3.68-15.63,2.16-.33-.6.1-1.74,4.85-6.65s8-8.06,10.55-9.88c.33-.23,5.16-4.87,14.82-14.14,13.79-13.24,13.19-12.83,15-14.37,6.52-5.46,13.29-10.12,12.69-11.13-.2-.34-1,.1-4.4.06a11.55,11.55,0,0,0-2.93.08,7.18,7.18,0,0,0-3.26,1.87c-4.12,3.85-8.89,6.94-13.11,10.69C741,18.67,742,17.16,736.28,22,728.3,28.65,729,29,723,33.87c-7.29,5.92-8.19,5.25-13.92,10.56-5.18,4.79-8.31,8.3-8.31,8.3a29.11,29.11,0,0,1-5.39,5.84c-4.55,3.74-9.91,5.09-20.43,7.64-15.42,3.73-16.63,4-20,4.94-3,.85-4.33,1.26-15.27,4.71-20.07,6.32-18.69,5.86-20,6.29C600.16,88.57,600,89.87,591,92c-7.42,1.77-8.29,1.52-23.35,2.92-8.3.76-18.61,2.61-39.23,6.3-20.37,3.64-17.78,3.71-34.88,6.64-17.35,3-20.62,3-29.89,5.53-14.52,4-22.67,8.31-23.24,7.2s7.31-5.85,26-18.82c13.06-9.06,13-9.36,22.14-15.5,12.84-8.6,19.26-12.9,25.47-16,13.8-7,17.37-6,27.67-13.29,5-3.54,6.7-5.53,12.18-8.3,7.2-3.64,11.35-3.75,18.82-6.09,4.78-1.49,5.54-2.22,21-10,25.51-12.74,22.72-10.41,30.45-14.95,9.6-5.63,13-8.7,22.69-12.73,2.87-1.19,8.49-3,8.31-3.74-.11-.43-2-.25-4.18-.12-9.65.59-10.28-.54-16.63.12a54.07,54.07,0,0,0-11.85,2.64c-8.79,2.89-14.5,7.4-17.72,9.41-13.28,8.25-23.4,12.63-38.74,20.48-13.6,7-20.5,10.46-25.47,12.17-10.79,3.74-14.19,3.2-23.24,7.2-7.65,3.38-10.07,5.9-21.59,13.84C480.7,77.31,481,75.66,464.21,86.86c-20.94,14-18.23,14.45-29.34,20.48-13.33,7.23-25.62,11.1-34.32,13.83a66.45,66.45,0,0,1-23.25,6.09c-2.52.17-5.4.2-7.19-1.66-3.54-3.66-.22-11.91.55-13.84,1.28-3.17,2.51-4.68,13.29-16.6,6.74-7.47,8.55-9.41,11.62-12.18a113.32,113.32,0,0,1,8.86-7.2,58,58,0,0,1,9.41-6.08c4.12-2,5.52-1.72,13.84-3.88,2.17-.56,6.44-1.82,14.94-4.43,11-3.36,21.48-6.58,34.32-11.62,9.34-3.67,15.54-6.18,23.25-10.52a129.41,129.41,0,0,0,17.16-11.62A148.9,148.9,0,0,0,530.08,16s2.76-2.88,12.22-14.71c-4.66-.14-9.35.53-14,0a5.86,5.86,0,0,0-2.71.25,7.39,7.39,0,0,0-2.49,1.72c-9.73,8.36-7.39,6.13-8.93,7.59C500.41,24,500.38,24.19,498.11,26c-6.34,5.19-11.85,8.05-17.86,11.17a141,141,0,0,1-20.09,8.48c-8.35,2.77-9.34,2.2-15.63,4.91a97.51,97.51,0,0,1-11.61,4.46c-4.39,1.35-7.83,2.38-8.48,1.34-.77-1.24,2.89-4.83,7.59-9.37,5.7-5.52,10.66-9.52,13.84-12.06,6.88-5.5,10.32-8.25,12.5-9.82,5.46-3.94,16.95-11.74,26.79-19.65,0,0,4.16-3.4,3.58-4.31-.29-.44-1.72.22-5,.08-.66,0-1.09-.07-1.23-.08C479,.91,472.13,8.43,468.2,11.5c-4.2,3.29-3.52,1.85-14.54,9a115.53,115.53,0,0,0-10.21,7.07c-4.65,3.84-6.08,6.08-12.18,12.57-2.89,3.07-5.46,5.59-10.61,10.61-8,7.83-26.92,25.37-28.78,23.67-1.07-1,3.69-8,6.54-11.75,3.75-4.86,5-4.93,9.55-10.31,3.74-4.42,3.48-5.07,9.55-13.37,4.46-6.09,5.13-6.48,8.79-11.46,4.91-6.69,8.32-12.31,10.32-15.67,3.87-6.51,6.78-9.82,5.93-10.71-.23-.23-.45-.1-2.24,0-2.56.14-3-.08-6.68.08-1.83.08-2.09.16-2.39.31-1.56.79-1.77,2.64-2.49,4.33-1.12,2.59-1.79,2.49-4.67,6.66s-2.21,4.2-4.66,7.82-3,3.43-6.66,8.16c-2.71,3.5-2.73,4-6,8.49-2.77,3.81-5,6.49-7.16,9.16-4.13,5-5.33,6.09-10.32,12-3.5,4.12-3.55,4.36-7,8.49-7.13,8.56-11.47,13.76-17.72,19.68-7.15,6.78-7.39,5.58-10.77,9.73-2.56,3.14-4.13,5.92-7.29,6.6a8.3,8.3,0,0,1-6.95-1.74c-4.21-3.84,1.66-11.14,2.13-26,.22-6.76-.93-6.35-1.19-19.49-.15-7.83-.07-11.75.76-15.07,3.74-15,19.26-21.1,18.26-22.73-1.13-1.84-21.68,4.7-25.5,16.59a76.8,76.8,0,0,0-2.4,12c-.45,3.71-.58,6.46-.62,7.26-.37,7.09-2.24,14.49-4.46,25-4.22,19.93-6.33,29.89-9.8,35.65-5.87,9.77-13.41,15.45-17.82,18.72-4.86,3.59-7.19,4.4-27.63,13.37-22.25,9.75-26.44,11.83-28.52,9.8-3.59-3.5,2.74-15.63,7.13-24.06,4.77-9.15,7.6-9.67,15.15-22.28,4-6.74,3.79-7.38,8-14.26a191.16,191.16,0,0,1,12.48-17.83c5.93-7.65,11.67-15.07,20.5-23.17a151.57,151.57,0,0,1,21.11-16c10.52-6.91,11.07-5.92,30.64-17.45,11.87-7,12.82-8,19.16-11.07,12.07-5.78,19.8-7.87,19.58-8.81-.18-.74-5,.29-15.85.11-3.1-.06-2.65-.14-3.73-.11-7.62.19-12.57,3.89-29.37,14.34-7.45,4.64-7.42,5-20.43,13.63-18.05,11.89-17.35,10.61-23,14.89-10.82,8.21-18,16.39-26,25.54C265.75,83.86,260,93.29,257.78,92.15c-1.77-.9,1-7.19,1.71-18.73.46-7.46-.49-8-1.76-23.81C256,28.14,255.16,17.4,256.08,13c.35-1.68,2.16-10-.33-11.25A14.34,14.34,0,0,0,253,1.65c-2.36,0-3.07.08-5.05.08a12.88,12.88,0,0,0-2.29,0c-2.18.79-2.09,6.12-1.92,13,.35,14.32.51,15.15.42,19.16-.34,15.36,0,9.37-.42,24.69-.31,11.83-.47,17.83-.85,21.7a115.21,115.21,0,0,1-3.83,22.14,83.74,83.74,0,0,1-11.92,26c-4.26,6.08-8.37,9.87-16.6,17.45-7.22,6.65-12.58,10.63-23,18.31-17.15,12.65-19.39,12.67-20.43,11.92-2.24-1.63.94-6.94,3-20.44A137.16,137.16,0,0,0,171.38,130c-.35-12.13-1.82-12.26-1.71-23.83.08-7.4.68-7.31.86-17.88.15-8.93-.25-10.65.85-14.47,1.28-4.44,3.24-7.06,8.25-13.81,7.33-9.89,11-14.84,12-16.2,3.47-4.88,12.6-17.7,16.2-27.47,1.4-3.78,1.69-6.36,4.23-10.56,1.69-2.81,2.5-4.15,2.09-4.62-.17-.2-.33,0-1.74,0-1.2,0-2-.14-2.82.44h0s-.31.73-.92,2.21a131.64,131.64,0,0,1-5.9,11.79c-2,7.12-5.85,12.18-13.47,22.31-1.71,2.27-4.7,5.59-10.7,12.22-12,13.27-14.58,13.21-18.13,19.9a71.23,71.23,0,0,0-5.76,15.48c-1.2,5.31-1.35,9.26-2,9.27s-1-3.32-2.6-13.66c-1.86-12.22-2.34-14.3-3-16.6-1.49-5.12-2.39-7.61-3.06-9.47-1.05-2.89-1.64-4.18-2.05-5.76a21.15,21.15,0,0,1-.52-2.78,33.23,33.23,0,0,1,.55-10.65,34.28,34.28,0,0,1,10.44-17.48c.31-.26,1.74-1.45,3.58-3.07,3-2.67,3.39-3,3.76-3.35,0,0,.16-.13.34-.25a52.1,52.1,0,0,1,14.09-7.35,51,51,0,0,1,8.46-2.09c5-.54,6.23-.81,6.22-1s-3.86-.29-7.22-.1c-.68,0-1.26.08-2.06.16a42.2,42.2,0,0,0-7.46,1.49c-4.83,1.35-5.54,1.6-12,4.46-4.15,1.85-5.36,2.72-6.28,3.51-1.25,1.06-1.68,1.74-3.2,2.88s-4.68,3.15-5.26,2.55c-.79-.82,2.88-6.82,7.25-11.42,1.1-1.15,3.08-3.12,2.69-3.72-.25-.4-1.21-.06-3.44.05-1.94.1-3-.07-3.44-.05-3.23.11-6.23,9.3-9.29,20.64-4.82,17.84-4.86,20.09-4.47,22.71.69,4.73,3.17,13.53,3.44,14.46h0c3.27,11.67,4.2,39.27,2.39,39.39-1.28.09-.44-13.66-8.2-28.33-.16-.3-1.73-3.43-4.86-9.7a49,49,0,0,1-5-14c-.06-.33-.09-.59-.12-.78a39.06,39.06,0,0,1,0-10.67,50.8,50.8,0,0,1,2.75-11.36c1.59-4.62,2.43-7.07,4.47-10a47.81,47.81,0,0,1,7.81-8.22l.45-.38c3.34-2.77,4-3.07,3.94-3.41s-.75-.4-6.35-.37c-1.31,0-2,0-2.08,0-3.51.34-6.08,4-7.36,5.93-7.7,11.73-10.7,26.12-11,27.67a33.93,33.93,0,0,0-.88,7.67c.08,6.72,2.37,11.09,1.72,11.35-.81.34-3.66-4.34-5.44-8.3a36.77,36.77,0,0,1-3.51-14.06c0-1.21,0-3.82,0-4.95,0-3.21.12-4.44,0-6.75a44.45,44.45,0,0,0-.88-6.29c-1.18-6.6-1.73-5.55-1.87-8.51-.07-1.39,0-3.44-.95-3.78-.39-.15-.67.12-1.74.13S99.92,1,99.64,1.19c-.92.54.81,4.89,1.74,8,.48,1.63.76,4.73,1.31,10.87,1.39,15.71.84,16.37.43,16.51-1.26.42-3.77-3.34-5-6.08-.56-1.26-.93-2.46-1.73-9.56C95.18,10.3,95.17,5.41,95.28,4.31c.06-.55,0-.83,0-1.38,0-.3.18-1.33-.36-1.74-.39-.29-.84,0-2.29,0-1.16,0-1.22-.12-1.51,0-1.15.49-1,3.39-.83,5.7.28,4.15.81,7.33,1,8.19.91,5.47.51,4.56,1.31,9.14.86,5,1.31,7.51,2.49,10.45a35.24,35.24,0,0,0,3.18,6c5,8,5.92,10.39,10.07,15.25,4.89,5.76,7,5.85,10.3,11.25.75,1.21,2,3.48,3.28,5.62,2.75,4.79,3.18,5.45,4.22,7.5,3.41,6.71,3.82,13.37,4.22,19.68.25,4.09-.08,3.89,0,9.37s.93,15.93.93,15.93a110.12,110.12,0,0,1,0,18.27A104,104,0,0,1,128,161.84a88.69,88.69,0,0,1-5.15,15.46,66.62,66.62,0,0,1-10.78,16.87c-4.55,5.17-7.23,7.37-9.37,7-5.88-1-6.88-18.12-12.65-71.69-1.94-18-2-17.46-2.13-20.38-1.25-23.66,2.21-38.22-.21-56-.19-1.35-.53-5.48-1.41-11.24a154,154,0,0,1-1.4-16.4s-.16-2.9-.47-17.81a15.85,15.85,0,0,1,.69-2.94c.65-1.95,1.28-2.62,1-3.18s-1.73-.44-4-.32c-1.87.1-3.75-.1-5.62-.05-3.3.08-6.59,0-9.89,0H16.46c-8.35,0-13.11-2.68-15.5,0C-.77,3.11.23,5.66.93,12.94c.53,5.51.23,11.06.35,16.59.15,6.82.06,9.35,0,21.53-.05,11.21,0,14,0,27.18C1.28,108,1,132.45,1,162.94c0,40.92.38,34.12.32,72.71,0,25.23-.24,32.83-.32,72,0,15.87,0,23.89,0,47.29q0,45.88,0,91.77v21.88c0,4.59,0,9.17,0,13.76C.87,506.29.24,506.2,1,508Z"/><path class="cls-5" d="M1147,285.61c.11-5.26,15.21-8.07,50.7-16.68,60.79-14.75,44.78-13.37,89.69-23.57,52.11-11.83,99.39-19.47,139-24.63,32.14-4.19,74.66-9.61,125.81-10.47,21.31-.36,50,0,52.26,0,22.23.27,37.43.79,66.68,1.8,29,1,43.66,1.52,53.17,2.7,16.68,2.07,30.5,5,49.56,9,17,3.6,29.61,6.73,38.74,9,17.4,4.34,33.68,8.49,54.07,15.31,7.82,2.62,53.73,18.27,54.26,32.44,0,0,.52,0,0,5.81-.47,5.21,0,10.47,0,15.7v29.31c0,30-.24,31-.12,45.67.06,6.58-.27,13.17.12,19.74.54,9.36,1.53,11.4,0,13.6-5,7.2-20.23,4.24-34.15,2.1-20.26-3.13-40.91-3-61.23-5.76-33.12-4.44-58.24-6.66-85-9-24.3-2.14-23.12-1.47-56-3.94-72.51-5.44-121.87-11.89-133.39-13.42-14.39-1.91-31.15-4.15-53.67-7.89-47.38-7.87-83-16.18-142.07-30-24.3-5.68-44.82-10.7-59.19-14.21-5.87-1.44-22.06-5.4-60-15C1157.72,293.37,1146.94,290.08,1147,285.61Z"/><path class="cls-6" d="M131.24,366.61s74-35.23,91.33-43.21c14.68-6.76,68.43-30.74,200.11-56.78,67.91-13.44,191-37.15,358-39.52,109.11-1.54,163.67-2.36,235.84,13.76,52.26,11.68,118.26,32.73,200.46,59,33.32,10.63,59.18,19.32,102.19,31.44,31.17,8.79,73,20.56,125.78,31.45,36.47,7.53,85,16.07,141.7,22,69.64,7.32,150.58,10.62,200.26,15.31,2.46.23,10,.94,20.12,1.72,8,.61,28.45,2.12,51.57,2.65,44.57,1,56.91-2.59,62.33,5.95,2,3.16.85,4.49-.12,22.11-.35,6.39-.37,19-.41,44.19,0,3.07,0,11.75.32,33.31,1,65.65,2.46,76.27-5.65,82-1.7,1.2-2.89,1.52-34.69,1-23.11-.39-35.67-.74-35.67-.74-13.54-.37-27.09-.56-40.63-1-67.82-2.21-190.54-.92-216.78-.68-68.35.62-77.33-2-232-2.13-281.28-.19-258.23-2.94-427.74-2.13-215.4,1-379.61,6.08-451.14,8.51h0c-47.06,2.48-170,8.68-289.42,12.77-34.75,1.19-85.7,2.76-148.25,4,0,0-35.37,3.75-37.69-4.1-.46-1.56.4-3.37.34-10.3,0-3.32-.25-5.68-.34-6.87-.88-10.81.35-25.15,0-48.76C1,534.6.84,530.82,1,523.42c.12-8.12.42-8.33.17-12.39-.28-4.57-.88-7.94,0-8.24s2,3.18,5.16,5.64c3.38,2.61,7.3,2.65,11,2.7,8.62.11,17.24.66,25.86.5,11.73-.21,9.77.27,17-.08,6.22-.31,2.48-.29,25.82-2.23,15.47-1.28,21.9-1.68,31.16-4.45,10-3,14.38-6.09,17.36-9.79,1.28-1.58,4.75-6,4.9-12,.11-4.39-1.41-7.41-2.67-10.35-4-9.18-4.65-17.21-5.67-28.92-.61-7,.19-5.67-.49-20.39-.23-5-.46-8.13-.35-13.26.13-6.09.55-6.2.84-12.9.07-1.6.1-2.79.1-3.86,0-3.25-.07-5.64-.1-6.26C131,384.61,130.92,379.24,131.24,366.61Z"/><path d="M1456.63,36.71c-.06.74-22.67-4.54-52.29-7.48a92,92,0,0,0-16.28-.6,86.9,86.9,0,0,0-30.48,7.83c-.17,0-.38,0-.39-.05s.15-.16.21-.19a74,74,0,0,1,39.2-11.36c9.09.4,16.38,1.69,30.94,4.28,1.56.27,9.82,1.76,20.66,4.83C1451.68,35,1456.65,36.37,1456.63,36.71Z"/><path d="M1268.34,39.15c.07.65,44.75-10.77,58.83-9.67a132.59,132.59,0,0,1,18,3.14c1.16.31,2,.57,2.61.75,5.93,1.73,9.7,3.37,9.75,3,0-.14-.67-.57-.77-.63-16.74-10.38-29.8-9.3-29.84-9.3h0C1294.5,26.47,1268.29,38.65,1268.34,39.15Z"/><path d="M1715.56,80.52c-.06.76-22.67-4.71-52.29-7.76a88.75,88.75,0,0,0-16.28-.64,84.3,84.3,0,0,0-30.47,8.14c-.18,0-.39,0-.39-.05s.15-.17.2-.21a71.93,71.93,0,0,1,39.2-11.79c9.1.42,16.38,1.76,31,4.44,1.55.29,9.81,1.84,20.65,5C1710.61,78.7,1715.59,80.16,1715.56,80.52Z"/><path d="M1527.27,83.05c.08.67,44.75-11.18,58.83-10a127.74,127.74,0,0,1,18,3.26c1.16.33,2,.6,2.62.78,5.92,1.8,9.69,3.5,9.74,3.15,0-.15-.67-.59-.77-.66-16.74-10.77-29.8-9.65-29.84-9.65h0C1553.44,69.89,1527.22,82.53,1527.27,83.05Z"/><path d="M1802,32c0,.6-10.41-3.7-24-6.1a23.67,23.67,0,0,0-7.47-.5c-5.91.67-10.73,3.75-14,6.4-.08,0-.17,0-.18,0s.07-.13.1-.16c8.77-10,18-9.28,18-9.28,4.18.33,7.52,1.39,14.21,3.5a64.82,64.82,0,0,1,9.49,3.95C1799.76,30.52,1802,31.67,1802,32Z"/><path d="M1715.56,34c0,.52,20.55-8.8,27-7.9a37.26,37.26,0,0,1,8.27,2.56l1.2.61c2.72,1.42,4.45,2.76,4.47,2.48,0-.12-.31-.46-.35-.52-7.69-8.47-13.69-7.59-13.71-7.59h0C1727.57,23.59,1715.53,33.54,1715.56,34Z"/><path class="cls-7" d="M340.15,419.15l133.9,2.12L482.22,445,488,455.18H331.43q1.43-7.19,3.17-14.69Q337.21,429.35,340.15,419.15Z"/><path class="cls-8" d="M483.37,182.23c3.41-2.67,10-.55,10.13,1,.05.75-1.81.84-3.58,2.41-3,2.69-3.1,7.32-3.1,9.65,0,0,0,55-.12,63.44,0,1.45-.06,3-.06,3-.07,2.66-.13,4.09-.26,10.59-.3,14-.35,30.7-.35,30.7,0,12.58-.08,30,.31,53.11.36,21.95.73,25.94.83,41,0,3.42.08,14,.37,22.28,0,1,.18,5.1.35,10.77,0,1.61.1,3.43.15,5.61.1,4.16-.07,10.73-.07,19.29v0a18.17,18.17,0,0,1-5-9.26c-.37-2-.22-3.24,0-7.88.17-3.52.2-7,.39-10.55.63-11.48-1.57-34.1-3.07-34.07-.71,0-1.13,4.91-1.92,13.92-1.27,14.5-.94,21.9-1.91,22-.8.06-2-4.92-2.4-9a51.79,51.79,0,0,1,0-6.83c.24-6.9.41-9.51.41-9.51.56-7.72.91-15.45,1.5-23.17.78-10.2,1.44-18.91,1.62-21.52.52-7.14.88-14,1.77-51.59.4-17,.29-14.53.64-28.85.35-14.06.6-22.16.86-36.7.19-10.68.23-15.49.24-18.13,0-6.83,0-12.22-.08-22.21a60.13,60.13,0,0,1-.13-12.34C481.45,184.39,482.36,183,483.37,182.23Z"/><path class="cls-8" d="M352.19,180.16c1.71,0,4.75,0,4.93.87.23,1-4.05,1.61-7.52,5.45-2.14,2.37-2.89,5-4,7.73-1,2.59-1.34,4.62-1.91,9.23-.82,6.63-1.12,10.47-1.5,14.12-1,9.47-1.52,8.93-2.28,17.27-.16,1.74-.39,5.73-.85,13.65-.16,2.8-.28,4.88-.37,6.49-.16,2.87-.29,5.11-.31,5.59-1.46,26.24-2.19,39.35-2.52,42.94h0c-3.32,35.14-3.24,57.9-2.16,66.64.9,7.32,2.21,15.48,2.21,15.48h0c1,5.83,2.41,15.52,4.2,32.38-.35,3.76-.84,6.57-1.5,6.6-2.23.08-4.15-32-6.36-32-1.16,0-1.65,9-2.56,26a71.08,71.08,0,0,0,.53,16.2,72.94,72.94,0,0,0,1.67,8.33c.78,2.56,1.47,3.91,1.46,6.22,0,2.89-1.15,5.84-2,5.8-.63,0-.93-2-1.41-4.37a49.65,49.65,0,0,0-2.28-8s-.7-2.16-1.42-5.49c-2.37-11-2.39-39.94-2.37-40.46v0c0-.08,0-.28,0-.55,0-.56.07-1.46.11-2.55.05-1.54.07-3,.28-10.49.17-6,.5-15,1.27-29.55,1.37-26,1.15-24.6,2.1-41.09.79-13.44,1.6-25.88,2.28-36.32.73-11.11,1.1-16.66,1.56-23.15.74-10.21,1.26-16.66,2.13-29.54s.93-15.28,1-17.56c.07-5.15.07-8.42.08-9.2,0-2.22.13-10.3,5.25-14.24C343,180.23,346.63,180.14,352.19,180.16Z"/><polygon class="cls-9" points="340.15 419.15 339.8 421.06 474.43 423.08 474.05 421.27 340.15 419.15"/><polygon class="cls-9" points="338.98 423.08 338.62 424.99 475.3 427.01 474.92 425.2 338.98 423.08"/><polygon class="cls-9" points="337.64 427.93 337.28 429.84 477.03 431.86 476.64 430.05 337.64 427.93"/><polygon class="cls-9" points="336.55 432.78 336.18 434.69 478.7 436.71 478.31 434.9 336.55 432.78"/><polygon class="cls-9" points="335.28 437.63 334.9 439.54 480.38 441.56 479.97 439.75 335.28 437.63"/><polygon class="cls-9" points="334.6 442.47 334.22 444.38 482.23 446.41 481.81 444.6 334.6 442.47"/><path class="cls-9" d="M332.88,447.33l.51,2.05,151.18,1.89-.43-1.81Z"/><path class="cls-9" d="M332.88,453.21l-1.45,2H486.9l-.43-.91Z"/><path class="cls-10" d="M349.74,206.81c-3.73-5.3-15.69-5.13-18.55-.37-1,1.59-1.11,4,0,5.31.82,1,2.89,1.06,7,1.24,1.11,0,2.24.08,4.12.08,7.17,0,7.87-.4,8.25-.9C351.54,210.88,350.84,208.37,349.74,206.81Z"/><path class="cls-11" d="M349.18,219.93c-4.08,5-16,4.06-18.54-.88-.85-1.66-.83-4.1.35-5.3.88-.9,3-.87,7.08-.77,1.11,0,2.23.08,4.11.2,7.16.49,7.83.92,8.18,1.45C351.25,216,350.38,218.43,349.18,219.93Z"/><path class="cls-10" d="M492.93,206.68c-3.73-5.3-15.69-5.12-18.55-.36-1,1.59-1.11,4,0,5.31.82,1,2.89,1.06,7,1.24,1.11,0,2.24.07,4.12.07,7.17,0,7.87-.39,8.25-.9C494.74,210.75,494,208.25,492.93,206.68Z"/><path class="cls-11" d="M492.37,219.8c-4.07,5-16,4.06-18.54-.87-.85-1.66-.83-4.11.35-5.31.88-.89,3-.86,7.08-.76,1.11,0,2.23.07,4.11.2,7.16.48,7.83.92,8.18,1.45C494.44,215.86,493.57,218.31,492.37,219.8Z"/><g class="cls-12"><rect class="cls-13" x="1.36" y="586.5" width="1920" height="494.09"/><path class="cls-13" d="M1922.36,869.34v184.55h.77q-4.53,3.19-9.19,6.3-18.64,12.42-39.43,23.52v-2.12H1113v1.9q-13.08-5.61-25.74-11.56-25.32-11.9-48.85-25a672.48,672.48,0,0,1-86.16-56.65C848.42,909.45,790.77,808.91,803.9,707.84a225.61,225.61,0,0,1,22.21-72.12A255.49,255.49,0,0,1,846,602.63q5.65-8,12-15.73,3.16-3.87,6.48-7.66v6.26h1024v-6.13q5,3.74,9.87,7.52,9.74,7.58,18.92,15.39,4.61,3.9,9,7.85h-3.9Z"/><path class="cls-13" d="M1922.36,868v182.88H1924q-4.49,3.17-9.11,6.24-18.48,12.32-39.07,23.32-5.14,2.74-10.41,5.41v-4.23H1134.25v4.08q-6.59-2.7-13.07-5.48-13-5.58-25.51-11.46-25.1-11.79-48.41-24.77a667,667,0,0,1-85.38-56.13c-102.9-80.12-160-179.75-147-279.91a223.73,223.73,0,0,1,22-71.47,253.78,253.78,0,0,1,19.69-32.79q5.61-7.93,11.88-15.59,3.12-3.84,6.42-7.59v5H1889.6v-4.89q5,3.69,9.78,7.45,9.66,7.52,18.76,15.25,4.54,3.86,9,7.78h-4.74Z"/><path class="cls-13" d="M1922.36,866.59v181.23h2.51q-4.44,3.12-9,6.18-18.31,12.2-38.73,23.1-10.18,5.45-20.87,10.55v-6.06H1155.44v6c-70.64-27.67-133-62.53-183.94-102.23C869.53,906,812.91,807.24,825.81,708a221.43,221.43,0,0,1,21.81-70.82,249.17,249.17,0,0,1,19.51-32.49q5.55-7.86,11.76-15.46,3.11-3.79,6.37-7.52v3.79H1890.79v-3.66q4.9,3.66,9.69,7.39,9.55,7.44,18.58,15.11,4.51,3.82,8.88,7.71h-5.58Z"/><path class="cls-13" d="M1922.36,865.22v179.56h3.38c-2.94,2.06-5.92,4.11-8.94,6.12q-18.15,12.09-38.37,22.89-10.1,5.4-20.68,10.45v-2.65H1163.37v2.6c-70-27.42-131.74-62-182.26-101.29C880.08,904.23,824,806.41,836.76,708.08a219.36,219.36,0,0,1,21.61-70.18,249.25,249.25,0,0,1,19.33-32.19q5.5-7.79,11.66-15.31,3.07-3.75,6.3-7.45v2.55H1892v-2.42c3.24,2.42,6.45,4.86,9.6,7.32q9.48,7.36,18.41,15c3,2.54,5.92,5.08,8.8,7.65h-6.42Z"/><path class="cls-14" d="M1922.36,863.84v177.9h4.25q-4.36,3.08-8.86,6.06-18,12-38,22.68-10,5.36-20.49,10.36-5.24,2.51-10.6,4.92v-4.17H1184.4v4.2q-6.6-2.46-13.1-5c-69.34-27.16-130.52-61.38-180.57-100.35-100.1-77.93-155.68-174.85-143-272.28a217.76,217.76,0,0,1,21.41-69.52,245.82,245.82,0,0,1,19.16-31.89q5.44-7.72,11.54-15.17,3-3.72,6.25-7.38v1.31h987.08v-1.19q4.83,3.6,9.52,7.25,9.38,7.31,18.24,14.83c1.47,1.26,2.94,2.52,4.39,3.78h-2.94Z"/><path class="cls-15" d="M1922.36,862.46V1038.7h5.12q-4.32,3-8.78,6a487.13,487.13,0,0,1-79.18,42.31v-5.43H1205.36v5.55q-13.24-4.71-26.13-9.76c-68.69-26.91-129.3-60.81-178.88-99.42-99.16-77.2-154.23-173.21-141.68-269.73a215.13,215.13,0,0,1,21.21-68.87,243.36,243.36,0,0,1,19-31.59q5.4-7.65,11.44-15,3-3.69,6.19-7.32v.08h973.05V582l4.81,3.55q4.77,3.57,9.42,7.18,9.3,7.24,18.07,14.69c1.46,1.25,2.91,2.49,4.35,3.74h-3.82Z"/><path class="cls-15" d="M1922.36,861.09v174.57h6q-4.29,3-8.69,5.95a482.07,482.07,0,0,1-78.44,41.91v-1.93H1213v2.05q-13.12-4.67-25.88-9.67c-68.05-26.65-128.08-60.23-177.2-98.47C911.74,899,857.2,803.92,869.62,708.31c6.21-47.8,28.58-91.2,63.7-128.76v6h952.61v-5.72q9.72,6.94,18.92,14.12t17.9,14.55h-.39Z"/><path class="cls-15" d="M1922.36,859.71v172.91h6.86q-4.24,3-8.61,5.9a478.39,478.39,0,0,1-77.69,41.51q-5.31,2.27-10.74,4.45v-2.89H1233.82v3.1q-6.6-2.24-13.09-4.54-13-4.64-25.64-9.58c-67.4-26.4-126.86-59.66-175.51-97.54-97.29-75.75-151.31-169.95-139-264.64,6.16-47.35,28.31-90.34,63.1-127.53v4.64H1887.2v-4.41q9.63,6.87,18.75,14t17.73,14.41h-1.32Z"/><path class="cls-16" d="M1922.36,858.33v174.19h3.5q-2.13,1.45-4.3,2.9a472.8,472.8,0,0,1-76.94,41.11q-10.53,4.5-21.48,8.65v-3.59H1254.51v3.88q-26.44-8.48-51.49-18.3c-66.75-26.15-125.64-59.1-173.82-96.6-96.36-75-149.86-168.32-137.67-262.1,6.09-46.89,28-89.47,62.49-126.31v3.34h934.46v-3.11q9.52,6.81,18.56,13.85t17.56,14.27h-2.24Z"/><path class="cls-16" d="M1922.36,857v175.37h.16a470.06,470.06,0,0,1-76.2,40.71q-10.42,4.44-21.27,8.56H1261.94v.3q-26.19-8.4-51-18.13c-66.11-25.89-124.43-58.52-172.14-95.66-95.42-74.29-148.4-166.68-136.33-259.55,6-46.44,27.76-88.6,61.88-125.08v2h925.39v-1.81q9.43,6.75,18.39,13.71t17.38,14.14h-3.16Z"/><path class="cls-17" d="M1922.36,855.58v173.65h1.11a464.06,464.06,0,0,1-75.45,40.31q-20.64,8.82-42.94,16.28v-4.23H1295.61v4.69q-13.27-3.81-26.24-8-25.93-8.32-50.5-18c-65.45-25.64-123.2-57.95-170.44-94.73-94.48-73.56-147-165-135-257,6-46,27.49-87.73,61.28-123.86v.73H1891V585q9.35,6.69,18.2,13.58t17.22,14h-4.09Z"/><path class="cls-17" d="M1922.36,854.2v171.93h2.06a460,460,0,0,1-74.7,39.92q-20.45,8.71-42.51,16.12v-.58H1302.78v1q-13.15-3.78-26-7.89-25.66-8.24-50-17.78c-64.8-25.38-122-57.37-168.75-93.78C964.5,890.33,912.55,799.76,924.39,708.7c5.91-45.52,27.21-86.86,60.67-122.62q3.13-3.36,6.41-6.65v6.07h891.46v-5.76q4.75,3.25,9.37,6.56,9.26,6.62,18,13.44t17,13.86h-5Z"/><path class="cls-17" d="M1922.36,852.83V1023h3a455.34,455.34,0,0,1-74,39.52q-20.24,8.63-42.09,16-10.9,3.66-22.2,7v-3.89H1336.29v4.5a860.63,860.63,0,0,1-101.56-32.54c-64.15-25.13-120.76-56.8-167.07-92.85-92.61-72.11-144-161.78-132.32-251.92,5.86-45.07,26.94-86,60.06-121.4q3.11-3.32,6.35-6.57v4.69H1884.3v-4.39q4.7,3.21,9.28,6.49,9.15,6.54,17.84,13.31t16.88,13.72h-5.94Z"/><path class="cls-18" d="M1922.36,851.45v168.49h4a450.53,450.53,0,0,1-73.21,39.12A594.75,594.75,0,0,1,1766.8,1088v-6.38H1343.19v.77a853,853,0,0,1-100.53-32.21c-63.51-24.88-119.54-56.23-165.38-91.92-91.68-71.37-142.58-160.14-131-249.37,5.8-44.61,26.68-85.12,59.46-120.17,2-2.2,4.15-4.36,6.29-6.51v3.32h873.63v-3q4.65,3.19,9.18,6.43,9.06,6.48,17.66,13.18t16.71,13.58h-6.86Z"/><path class="cls-18" d="M1922.36,850.07v166.78h4.92a446.49,446.49,0,0,1-72.46,38.72,589,589,0,0,1-85.43,28.61v-2.59H1376.47v3.32q-13.32-3-26.37-6.28a842.48,842.48,0,0,1-99.51-31.89c-62.86-24.62-118.32-55.65-163.69-91-90.74-70.65-141.13-158.51-129.65-246.83,5.74-44.16,26.4-84.26,58.85-119q3-3.25,6.22-6.44v2H1887v-1.66q4.59,3.17,9.08,6.36,9,6.42,17.49,13,4.25,3.3,8.38,6.67,2.07,1.68,4.11,3.37h-3.74Z"/><path class="cls-19" d="M1922.36,848.7v165h5.87a441.26,441.26,0,0,1-71.71,38.32,582.51,582.51,0,0,1-84.55,28.32q-11.28,2.86-22.88,5.4v-4.2H1409.74v5q-26.9-5.13-52.74-11.73a833,833,0,0,1-98.48-31.55c-62.21-24.37-117.1-55.08-162-90C1006.71,883.38,956.84,796.43,968.2,709c5.68-43.71,26.13-83.39,58.24-117.73q6-6.43,12.59-12.62v6.83h840.16V579q18.64,12.27,35.51,25.39,4.21,3.29,8.3,6.61h-.64Z"/><path class="cls-20" d="M1922.36,847.32v163.34h6.83a437.33,437.33,0,0,1-71,37.92,576.85,576.85,0,0,1-83.67,28q-22.32,5.69-45.89,10v-5H1416.09v1.18q-26.61-5.08-52.19-11.61a827.19,827.19,0,0,1-97.45-31.22c-61.57-24.12-115.88-54.51-160.32-89.1-88.87-69.2-138.22-155.24-127-241.74,5.62-43.25,25.86-82.52,57.64-116.5q6-6.37,12.45-12.49v5.39h831.42v-5q18.45,12.13,35.13,25.12,4.17,3.24,8.22,6.54h-1.65Z"/><path class="cls-21" d="M1922.36,845.94v164.23h3.8c-1.33.87-2.68,1.73-4,2.58q-4.07,2.57-8.24,5-8.36,5-17.14,9.68-17.58,9.39-36.83,17.6a569.59,569.59,0,0,1-82.79,27.73q-22.08,5.63-45.41,9.88v-1.1H1476v5.92c-290.62-37.77-508.18-207.16-485.93-378.33,5.56-42.8,25.58-81.65,57-115.28q5.89-6.3,12.32-12.36v4h822.66v-3.61q18.26,12,34.77,24.86,4.13,3.21,8.13,6.47h-2.66Z"/><path class="cls-21" d="M1922.36,844.57v165h.81q-4,2.53-8.15,5-8.26,4.93-17,9.58-17.4,9.28-36.44,17.41c-50.71,21.62-109.72,36.78-174,44.21v-4.21H1481.82v2c-287.52-37.37-502.77-204.95-480.76-374.31,5.5-42.34,25.31-80.78,56.42-114q5.83-6.24,12.19-12.23v2.52h813.91v-2.18q18.08,11.88,34.4,24.6,4.08,3.18,8,6.4h-3.66Z"/><path class="cls-22" d="M1922.36,843.19v163.26h1.85c-2.66,1.67-5.34,3.32-8.07,4.95q-8.17,4.88-16.78,9.47-17.2,9.2-36,17.22c-50.16,21.39-108.54,36.39-172.15,43.74v-.24h-99v5.35a876.29,876.29,0,0,1-104.59-7.33c-284.44-37-497.37-202.74-475.6-370.28,5.45-41.88,25-79.91,55.82-112.82q5.78-6.16,12.06-12.09v1.08h805.16v-.75q17.87,11.76,34,24.34,4,3.13,8,6.33h-4.67Z"/><path class="cls-23" d="M1922.36,841.82V1003.3h2.88q-3.93,2.48-8,4.89-8.08,4.83-16.6,9.37-17,9.09-35.65,17c-49.62,21.16-107.36,36-170.28,43.26s-131,7-201.35-2.19c-281.34-36.56-492-200.54-470.42-366.26,5.38-41.43,24.76-79,55.21-111.59q5.7-6.11,11.93-12,3.11-2.93,6.34-5.8v5.45h781.12v-5.07q4.52,2.85,8.94,5.76,17.68,11.63,33.66,24.06c2.66,2.08,5.28,4.16,7.87,6.27h-5.68Z"/><path class="cls-24" d="M1922.36,840.44v159.71h3.92q-3.88,2.45-7.89,4.84-8,4.77-16.41,9.26-16.83,9-35.26,16.85c-49.07,20.93-106.18,35.6-168.41,42.79s-129.57,6.87-199.14-2.17c-278.25-36.16-486.55-198.34-465.25-362.23,5.32-41,24.49-78.18,54.6-110.37q5.65-6,11.8-11.83,3.08-2.89,6.27-5.74v4h772.54v-3.58c3,1.89,5.93,3.78,8.84,5.7q17.49,11.49,33.29,23.8,3.95,3.08,7.79,6.19h-6.69Z"/><path class="cls-25" d="M1922.36,839.06V997h5c-2.56,1.61-5.17,3.21-7.8,4.78q-7.9,4.72-16.23,9.17-16.65,8.88-34.87,16.66c-97.06,41.38-225.88,58-363.46,40.17C1229.8,1032,1023.81,871.64,1044.87,709.57c5.27-40.52,24.23-77.31,54-109.14q5.58-6,11.67-11.7c2-1.91,4.09-3.81,6.2-5.68v2.45h764v-2.08q4.43,2.79,8.75,5.63,17.28,11.37,32.92,23.54,2,1.51,3.87,3h-3.87Z"/><path class="cls-25" d="M1922.36,837.69V993.85h6q-3.81,2.39-7.71,4.73-7.83,4.67-16.05,9.06-16.45,8.79-34.48,16.47c-96,40.92-223.34,57.4-359.38,39.72C1238.67,1028.47,1035,869.9,1055.83,709.65c5.2-40.07,24-76.44,53.39-107.92a268.23,268.23,0,0,1,24-22.66v6.43h740.15v-6q8.94,5.41,17.49,11,17.1,11.24,32.55,23.27h-1.09Z"/><path class="cls-26" d="M1922.36,836.31V993.05h3.25q-1.9,1.17-3.84,2.32-7.73,4.62-15.87,9-16.26,8.68-34.08,16.29c-94.88,40.45-220.81,56.74-355.29,39.26-269-35-470.34-191.72-449.75-350.15,5.15-39.61,23.68-75.57,52.78-106.69a267.77,267.77,0,0,1,23.77-22.41v4.87h731.74V581q8.85,5.36,17.3,10.91,16.89,11.12,32.18,23h-2.19Z"/><path class="cls-27" d="M1922.36,834.93V992.17h.54q-7.65,4.56-15.69,8.85-16.08,8.6-33.69,16.1c-93.79,40-218.27,56.09-351.21,38.82-265.89-34.56-464.93-189.53-444.58-346.14,5.09-39.15,23.41-74.7,52.18-105.46a264.34,264.34,0,0,1,23.49-22.15v3.31h723.34v-2.93q8.73,5.28,17.09,10.78,16.71,11,31.81,22.75h-3.28Z"/><path class="cls-28" d="M1922.36,833.56V989H1924q-7.55,4.51-15.5,8.75-15.9,8.49-33.3,15.92c-92.7,39.52-215.73,55.44-347.13,38.36-262.79-34.15-459.52-187.32-439.4-342.11,5-38.69,23.13-73.83,51.57-104.23a261.15,261.15,0,0,1,23.22-21.9v1.75H1878.4v-1.37q8.64,5.22,16.89,10.65,16.51,10.86,31.44,22.48h-4.37Z"/><path class="cls-29" d="M1922.36,832.18V985.76h2.79q-7.47,4.46-15.32,8.65-15.7,8.39-32.91,15.72c-91.61,39.06-213.19,54.79-343,37.91-259.71-33.75-454.12-185.11-434.24-338.08,5-38.24,22.86-73,51-103a259.24,259.24,0,0,1,23-21.64v.19h697.89v-4.93q4.35,2.53,8.62,5.11,8.54,5.18,16.7,10.54,16.32,10.72,31.07,22.21h-5.47Z"/><path class="cls-30" d="M1922.36,830.8V982.55h3.91q-7.37,4.41-15.13,8.55-15.53,8.29-32.52,15.54c-90.52,38.59-210.65,54.13-339,37.46C1283.05,1010.75,1091,861.19,1110.59,710c4.91-37.79,22.59-72.1,50.36-101.78a254.36,254.36,0,0,1,22.67-21.38q3.06-2.57,6.23-5.06v3.68H1873.2v-3.31q4.3,2.5,8.52,5,8.44,5.1,16.5,10.41,16.13,10.61,30.7,22h-6.56Z"/><path class="cls-31" d="M1922.36,829.43V979.35h5q-7.29,4.35-15,8.44-15.35,8.19-32.13,15.35c-89.42,38.13-208.12,53.48-334.88,37-253.51-32.94-443.3-180.71-423.89-330,4.85-37.33,22.31-71.23,49.75-100.56a251.08,251.08,0,0,1,22.4-21.12q6-5.06,12.52-9.89v7h660.15v-6.58q17.37,9.68,33.31,20.16,8,5.24,15.56,10.66,3.78,2.71,7.48,5.47h-.36Z"/><path class="cls-32" d="M1922.36,828.05V976.14h6.17q-7.2,4.3-14.78,8.34-15.13,8.1-31.73,15.17c-88.33,37.66-205.58,52.83-330.79,36.56-250.43-32.55-437.9-178.51-418.73-326,4.79-36.88,22-70.36,49.14-99.33A249.17,249.17,0,0,1,1203.77,590q6-5,12.37-9.76v5.26h652.1v-4.9q17.16,9.55,32.91,19.91,7.86,5.18,15.36,10.54,3.75,2.67,7.4,5.4h-1.55Z"/><path class="cls-33" d="M1922.36,826.67V977.12h.09q-3.65,2.05-7.39,4.06-15,8-31.34,15c-87.24,37.21-203,52.18-326.71,36.11-247.33-32.14-432.49-176.3-413.56-322,4.74-36.43,21.78-69.49,48.54-98.11a247.21,247.21,0,0,1,21.85-20.61q5.91-4.93,12.22-9.64v3.58h644.05v-3.22q17,9.44,32.5,19.67,7.77,5.1,15.17,10.4,3.71,2.64,7.31,5.33h-2.73Z"/><path class="cls-34" d="M1922.36,825.3V973.86h1.31c-2.41,1.36-4.84,2.69-7.3,4q-14.77,7.89-30.95,14.79c-86.15,36.74-200.5,51.52-322.62,35.65-244.25-31.74-427.09-174.09-408.39-318,4.67-36,21.5-68.62,47.93-96.87a239.67,239.67,0,0,1,21.58-20.35q5.82-4.87,12.06-9.53v1.9h636V584q16.74,9.31,32.1,19.42,7.67,5,15,10.27,3.64,2.61,7.21,5.27h-3.91Z"/><path class="cls-35" d="M1922.36,823.92V970.6h2.52q-3.56,2-7.2,4-14.6,7.79-30.56,14.6c-85.06,36.28-198,50.88-318.54,35.21C1327.43,993,1146.9,852.47,1165.36,710.43c4.61-35.51,21.23-67.75,47.32-95.65A240.56,240.56,0,0,1,1234,594.69q5.76-4.82,11.91-9.4v.21h619.61v-4.41q4.21,2.25,8.34,4.55,16.51,9.2,31.69,19.17,7.57,5,14.79,10.14,3.62,2.58,7.13,5.21h-5.1Z"/><path class="cls-36" d="M1922.36,822.54V967.35h3.74q-3.51,2-7.11,3.9-14.4,7.69-30.17,14.42c-84,35.81-195.43,50.22-314.46,34.75-238.06-30.94-416.27-169.69-398-309.91,4.56-35,21-66.88,46.72-94.42a235.76,235.76,0,0,1,21-19.84q5.68-4.74,11.77-9.28c2-1.51,4.08-3,6.17-4.48v3h605.48v-2.67q4.17,2.22,8.24,4.49,16.3,9.07,31.28,18.92,7.49,4.92,14.61,10c2.37,1.69,4.72,3.41,7,5.13h-6.28Z"/><path class="cls-37" d="M1922.36,821.17V964.09h5c-2.31,1.3-4.65,2.59-7,3.85q-14.2,7.6-29.77,14.23c-82.88,35.35-192.89,49.57-310.37,34.3-235-30.53-410.87-167.48-392.88-305.88,4.49-34.6,20.68-66,46.11-93.2a253.91,253.91,0,0,1,44.75-37.47v5.58h583.05v-5.27q8.35,4.29,16.41,8.76,16.1,9,30.88,18.69,7.38,4.85,14.41,9.88h-.52Z"/><path class="cls-38" d="M1922.36,819.79v141h6.17q-3.42,1.93-6.93,3.81-14,7.49-29.38,14c-81.79,34.88-190.35,48.91-306.29,33.85-231.88-30.14-405.46-165.28-387.71-301.86,4.44-34.15,20.41-65.15,45.5-92a249.94,249.94,0,0,1,44.17-37v3.78h575.37V582q8.25,4.22,16.2,8.64,15.88,8.85,30.47,18.44,7.29,4.78,14.23,9.75h-1.8Z"/><path class="cls-39" d="M1922.36,818.42V961.33h.55q-13.83,7.39-29,13.85c-80.7,34.42-187.81,48.27-302.21,33.4-228.78-29.73-400-163.08-382.54-297.83,4.38-33.69,20.14-64.28,44.9-90.75a246.76,246.76,0,0,1,43.58-36.48v2h567.7v-1.68q8.14,4.17,16,8.53,15.68,8.73,30.07,18.19,7.18,4.73,14,9.62h-3.07Z"/><path class="cls-40" d="M1922.36,817V958h1.86q-13.65,7.29-28.6,13.67c-79.61,33.95-185.27,47.61-298.12,32.94-225.69-29.33-394.65-160.87-377.37-293.81,4.31-33.23,19.86-63.4,44.29-89.51a243.14,243.14,0,0,1,43-36v.18h551.92v-4c2.72,1.34,5.43,2.69,8.1,4.06q8,4.11,15.77,8.42,15.46,8.61,29.66,17.94,7.1,4.66,13.84,9.5h-4.34Z"/><path class="cls-41" d="M1922.36,815.66V954.71h3.17q-13.47,7.2-28.21,13.48c-78.52,33.49-182.74,47-294,32.5C1380.68,971.76,1214,842,1231.08,710.9c4.26-32.78,19.6-62.54,43.68-88.29a240.73,240.73,0,0,1,42.4-35.5q6.06-4,12.45-7.84v6.23h523.77v-6q16.42,7.71,31.69,16.21t29.25,17.7q7,4.59,13.66,9.36h-5.62Z"/><path class="cls-42" d="M1922.36,814.29V951.41h4.48q-13.29,7.08-27.82,13.29c-77.43,33-180.2,46.31-290,32C1389.56,968.22,1225.23,840.28,1242,711c4.2-32.32,19.33-61.67,43.08-87.06a237.18,237.18,0,0,1,41.81-35q6-4,12.28-7.74v4.33h516.49v-4.1q16.2,7.61,31.25,16t28.85,17.45q6.89,4.53,13.46,9.23h-6.89Z"/><path class="cls-43" d="M1922.36,812.91V948.1h5.78q-13.08,7-27.42,13.1c-76.34,32.56-177.66,45.66-285.87,31.6C1398.43,964.67,1236.42,838.53,1253,711.06c4.14-31.87,19-60.8,42.47-85.84a233.22,233.22,0,0,1,41.22-34.51q5.88-3.91,12.1-7.63v2.42H1858v-2.19q16,7.49,30.81,15.76t28.44,17.2c2.27,1.49,4.51,3,6.72,4.51h-1.61Z"/><path class="cls-44" d="M1922.36,811.53V948.18h.56c-2.2,1.12-4.43,2.21-6.68,3.29q-6.77,3.22-13.82,6.24c-75.25,32.09-175.12,45-281.79,31.14-213.32-27.72-373-152.06-356.69-277.71,4.08-31.41,18.78-59.94,41.86-84.61a230.1,230.1,0,0,1,40.64-34q5.79-3.87,11.93-7.52v.51h501.94v-.29q15.75,7.38,30.37,15.53t28,17c2.24,1.46,4.45,2.95,6.63,4.44h-3Z"/><path class="cls-45" d="M1922.36,810.16V944.83h2c-2.18,1.09-4.37,2.17-6.59,3.23q-6.66,3.2-13.62,6.15c-74.16,31.63-172.58,44.35-277.7,30.69-210.24-27.32-367.62-149.85-351.53-273.68,4-31,18.51-59.07,41.26-83.39a226.54,226.54,0,0,1,40-33.53q11.41-7.6,24.15-14.41v5.61h466.5V580q8,3.44,15.77,7.08,15.51,7.29,29.93,15.31t27.63,16.72q3.3,2.18,6.53,4.38h-4.35Z"/><path class="cls-46" d="M1922.36,808.78V941.47h3.37q-3.21,1.62-6.49,3.19-6.57,3.14-13.42,6.06c-73.07,31.16-170,43.7-273.62,30.24C1425.06,954,1270,833.31,1285.85,711.3c4-30.51,18.23-58.2,40.65-82.17a223.59,223.59,0,0,1,39.45-33q11.27-7.5,23.8-14.2v3.6H1849.4V582q7.89,3.39,15.53,7,15.28,7.17,29.49,15.08t27.22,16.47c2.17,1.43,4.32,2.87,6.43,4.32h-5.71Z"/><path class="cls-47" d="M1922.36,807.4V938.11h4.77c-2.11,1.07-4.24,2.11-6.39,3.14q-6.46,3.09-13.22,6c-72,30.7-167.51,43-269.53,29.79-204.06-26.52-356.81-145.45-341.19-265.64,3.9-30,18-57.32,40-80.93a220.47,220.47,0,0,1,38.87-32.54q11.08-7.39,23.45-14v1.59h452.78V584q7.77,3.35,15.31,6.88,15,7.07,29,14.86T1923.11,622h-.75Z"/><path class="cls-48" d="M1922.36,806V934.76h6.17c-2.07,1-4.17,2.08-6.29,3.09q-6.37,3-13,5.88c-70.89,30.23-165,42.39-265.45,29.33-201-26.11-351.4-143.24-336-261.61,3.85-29.59,17.69-56.46,39.44-79.71a216.87,216.87,0,0,1,38.28-32q10.92-7.28,23.09-13.78,6.07-3.24,12.45-6.29v5.87h417.91v-5.84a489,489,0,0,1,59.24,27.8q13.77,7.66,26.41,16h-2.21Z"/><path class="cls-49" d="M1922.36,804.65v129.8h1.38q-6.27,3-12.82,5.78c-69.8,29.77-162.43,41.75-261.37,28.89-197.86-25.72-346-141-330.84-257.59,3.78-29.14,17.41-55.59,38.83-78.48a212.88,212.88,0,0,1,37.69-31.55q10.74-7.17,22.73-13.57,6-3.2,12.26-6.19v3.76H1841.7v-3.73A479.14,479.14,0,0,1,1900,609.14q13.56,7.54,26,15.73h-3.67Z"/><path class="cls-50" d="M1922.36,803.27V931h2.88q-6.18,3-12.62,5.7c-68.7,29.3-159.89,41.09-257.28,28.43-194.78-25.31-340.59-138.83-325.68-253.56,3.73-28.68,17.15-54.72,38.22-77.26a210.91,210.91,0,0,1,37.1-31.06q10.59-7,22.38-13.35,5.9-3.15,12.07-6.1v1.66h405v-1.62a471.47,471.47,0,0,1,57.42,26.93q13.35,7.44,25.6,15.49h-5.14Z"/><path class="cls-51" d="M1922.36,801.9V927.64h4.38q-6.08,2.9-12.42,5.6c-67.61,28.84-157.36,40.44-253.2,28-191.68-24.91-335.18-136.64-320.51-249.54,7.34-56.45,52.83-102.51,120.44-131.35v5.16H1832v-5.23q7.76,2.76,15.29,5.71a466.63,466.63,0,0,1,56.5,26.51q13.14,7.32,25.19,15.24h-6.6Z"/><path class="cls-52" d="M1922.36,800.52V924.23h5.88c-4,1.91-8.06,3.74-12.22,5.52-66.52,28.37-154.82,39.78-249.12,27.53-188.59-24.51-329.77-134.43-315.33-245.51,7.21-55.54,52-100.86,118.5-129.23v3H1835v-3q7.62,2.71,15,5.62a457.48,457.48,0,0,1,55.59,26.08q6.46,3.6,12.66,7.35,3.1,1.88,6.13,3.79h-2.07Z"/><path class="cls-53" d="M1922.36,799.15V923.59h1.43q-3,1.35-6.07,2.66c-65.43,27.91-152.28,39.14-245,27.08-185.5-24.1-324.37-132.22-310.17-241.48,7.1-54.64,51.12-99.21,116.56-127.11v.76h343.75v-6q15.4,5,30,10.66a450.66,450.66,0,0,1,54.68,25.66q6.36,3.54,12.45,7.23,3.06,1.84,6,3.72h-3.63Z"/><path class="cls-54" d="M1922.36,797.77V920.14h3q-3,1.33-6,2.62c-64.34,27.44-149.74,38.48-241,26.63-182.41-23.71-319-130-305-237.47,7-53.72,50.27-97.55,114.62-125q6-2.56,12.3-4.95v3.52h325.72v-3.68q15.15,4.84,29.5,10.48a441.52,441.52,0,0,1,53.77,25.23q6.25,3.48,12.25,7.11c2,1.2,4,2.43,5.93,3.66h-5.2Z"/><path class="cls-55" d="M1922.36,796.39v120.3H1927c-1.94.87-3.89,1.73-5.87,2.57-63.25,27-147.2,37.83-236.86,26.18C1504.94,922.14,1370.7,817.62,1384.43,712c6.86-52.81,49.41-95.9,112.67-122.87q11.85-5.05,24.66-9.34v5.71H1829.4v-1.4q14.88,4.77,29,10.31a434.59,434.59,0,0,1,52.86,24.8q6.15,3.42,12,7h-.93Z"/><path class="cls-56" d="M1922.36,795V915.77h.46C1860.66,942.28,1778.15,953,1690,941.49c-176.23-22.9-308.15-125.61-294.66-229.41,6.74-51.9,48.56-94.24,110.73-120.75q11.66-5,24.23-9.19v3.36h287.52v-3.62q7.5,2.16,14.82,4.5,14.63,4.7,28.49,10.13a427,427,0,0,1,51.95,24.38q6,3.36,11.83,6.86h-2.59Z"/><path class="cls-57" d="M1922.36,793.64V912.27h2.16c-61.07,26.05-142.13,36.53-228.7,25.28-173.13-22.5-302.74-123.41-289.49-225.39,6.63-51,47.72-92.59,108.79-118.63q11.45-4.89,23.81-9v1h267.58v-5.29A485.51,485.51,0,0,1,1864,598.62a420.1,420.1,0,0,1,51,23.94q5.94,3.3,11.62,6.75h-4.25Z"/><path class="cls-58" d="M1922.36,792.26V908.78h3.86c-60,25.58-139.59,35.87-224.61,24.82-170-22.1-297.34-121.2-284.32-221.36,6.5-50.08,46.86-90.94,106.84-116.52a334.3,334.3,0,0,1,48.44-16.22v6h237.74v-2.85a476.94,476.94,0,0,1,56.43,18.08,413,413,0,0,1,50.12,23.51q5.84,3.24,11.42,6.63h-5.92Z"/><path class="cls-59" d="M1922.36,790.89V905.28h5.56c-58.89,25.12-137.05,35.22-220.53,24.38-167-21.7-291.93-119-279.15-217.34,6.39-49.17,46-89.29,104.9-114.4A327.44,327.44,0,0,1,1580.7,582v3.51h233.42v-.42a470.56,470.56,0,0,1,55.4,17.75,406.11,406.11,0,0,1,49.21,23.09q2.87,1.59,5.66,3.22h-2Z"/><path class="cls-60" d="M1922.36,789.51V904.06h1.79c-1.85.74-3.71,1.46-5.58,2.18q-5.64,2.13-11.48,4.09-11.68,3.92-24.15,7.09a396.68,396.68,0,0,1-52.49,9.56,483.85,483.85,0,0,1-117.27-1.27c-163.86-21.29-286.53-116.8-274-213.31,6.27-48.26,45.16-87.64,103-112.28a320.59,320.59,0,0,1,46.68-15.64v1h200V581q14.85,2.84,29.12,6.48a458.62,458.62,0,0,1,54.37,17.42,398.47,398.47,0,0,1,48.3,22.66c1.87,1,3.73,2.09,5.56,3.16h-3.8Z"/><path class="cls-61" d="M1922.36,788.13V900.52H1926c-1.81.73-3.63,1.44-5.48,2.14q-5.52,2.08-11.26,4-11.46,3.84-23.69,7A389.43,389.43,0,0,1,1834,923,474.24,474.24,0,0,1,1719,921.76c-160.77-20.89-281.12-114.59-268.81-209.29,6.15-47.34,44.3-86,101-110.16A316.54,316.54,0,0,1,1597,587q12.22-3.12,25.12-5.47v4h141.44v-6.66A474.94,474.94,0,0,1,1875.08,607a388.65,388.65,0,0,1,47.39,22.24h-.11Z"/><path class="cls-62" d="M1922.36,786.76V899.08h0c-3.61,1.37-7.3,2.68-11,3.94q-11.25,3.76-23.24,6.82a381.58,381.58,0,0,1-50.51,9.2,465.62,465.62,0,0,1-112.85-1.22C1567.07,897.33,1449,805.43,1461.1,712.55c6-46.43,43.45-84.32,99.07-108,27.81-11.86,60.17-20.17,95.43-24.24v5.23h112.85v-4a465.67,465.67,0,0,1,109.41,27.66A381,381,0,0,1,1924.34,631h-2Z"/><path class="cls-63" d="M1922.36,785.38V895.5h1.93q-5.31,2-10.83,3.86-11,3.69-22.78,6.69a374,374,0,0,1-49.52,9,456.42,456.42,0,0,1-110.63-1.2c-154.59-20.09-270.31-110.19-258.48-201.24,5.92-45.53,42.6-82.67,97.13-105.92,27.27-11.63,59-19.78,93.56-23.77v2.56h110.64v-1.36a455.91,455.91,0,0,1,107.26,27.12,374.05,374.05,0,0,1,45.57,21.37h-3.85Z"/><path class="cls-64" d="M1922.36,784V891.92h3.84q-5.21,2-10.61,3.79-10.81,3.62-22.33,6.55a366.77,366.77,0,0,1-48.53,8.84,446.81,446.81,0,0,1-108.42-1.18c-151.49-19.68-264.9-108-253.3-197.21,5.79-44.62,41.74-81,95.18-103.81,26.72-11.39,57.81-19.38,91.69-23.29a459.16,459.16,0,0,1,213.54,27.75,367.94,367.94,0,0,1,44.66,20.95h-5.72Z"/><path class="cls-65" d="M1922.36,782.63V888.34h5.75q-5.1,1.93-10.4,3.71-10.57,3.54-21.87,6.42a358.92,358.92,0,0,1-47.54,8.66A438.19,438.19,0,0,1,1742.09,906C1593.69,886.69,1482.6,800.2,1494,712.79c5.68-43.71,40.9-79.37,93.24-101.69s121.83-31.31,196-21.66a437.9,437.9,0,0,1,103,26q11.65,4.56,22.62,9.71,5.48,2.58,10.76,5.28,2.64,1.35,5.23,2.73h-2.46Z"/><path class="cls-66" d="M1922.36,781.25V886.62H1925c-1.69.6-3.41,1.19-5.13,1.77q-10.36,3.48-21.42,6.29a351.67,351.67,0,0,1-46.55,8.48,429,429,0,0,1-104-1.13c-145.31-18.88-254.09-103.57-243-189.16,5.56-42.8,40-77.71,91.3-99.57s119.29-30.66,192-21.21A429.12,429.12,0,0,1,1889,617.57q11.41,4.48,22.15,9.52,5.35,2.52,10.53,5.16c1.73.88,3.43,1.78,5.13,2.68h-4.44Z"/><path class="cls-67" d="M1922.36,779.87V883H1927q-2.49.88-5,1.74-10.14,3.39-21,6.15a343.82,343.82,0,0,1-45.56,8.3,419.87,419.87,0,0,1-101.78-1.1C1611.44,879.6,1505,796.71,1515.87,713c5.44-41.89,39.19-76.06,89.36-97.45s116.75-30,187.85-20.77a419.69,419.69,0,0,1,98.69,24.95q11.18,4.38,21.68,9.31,5.25,2.46,10.31,5.06h-1.4Z"/><path class="cls-68" d="M1922.36,778.5V881.08h1.73q-9.93,3.33-20.51,6a336.71,336.71,0,0,1-44.56,8.12,410.75,410.75,0,0,1-99.57-1.08C1620.32,876.06,1516.17,795,1526.82,713S1658.89,579.3,1798,597.38a410.42,410.42,0,0,1,96.54,24.41q10.93,4.28,21.21,9.11,5.13,2.4,10.08,4.94h-3.48Z"/><path class="cls-69" d="M1922.36,777.12v100.3h3.85q-9.69,3.26-20,5.89a329.16,329.16,0,0,1-43.57,7.94,401.65,401.65,0,0,1-97.36-1.06c-136-17.68-237.87-97-227.46-177.09S1666.9,582.35,1802.94,600a401.51,401.51,0,0,1,94.39,23.86q10.7,4.18,20.74,8.91,5,2.36,9.86,4.83h-5.57Z"/><path class="cls-70" d="M1922.36,775.75v98h6q-9.48,3.18-19.59,5.75a322.05,322.05,0,0,1-42.59,7.76,392.52,392.52,0,0,1-95.15-1c-132.94-17.28-232.46-94.76-222.28-173.07s126.19-127.78,259.13-110.5A392.2,392.2,0,0,1,1900.11,626q10.46,4.1,20.27,8.7,2.44,1.15,4.86,2.33h-2.88Z"/><path class="cls-71" d="M1922.36,774.37v97.26h3.43q-2.36.74-4.74,1.44-4.79,1.41-9.72,2.66a316.14,316.14,0,0,1-41.6,7.58,383.33,383.33,0,0,1-92.93-1c-129.85-16.87-227.06-92.56-217.12-169s123.26-124.81,253.11-107.93a383.42,383.42,0,0,1,90.1,22.77q10.21,4,19.8,8.51h-.33Z"/><path class="cls-72" d="M1922.36,773v96.35h1q-4.68,1.38-9.49,2.6a307,307,0,0,1-40.61,7.4,374.22,374.22,0,0,1-90.72-1c-126.76-16.47-221.65-90.35-211.95-165S1691,591.5,1817.72,608a373.75,373.75,0,0,1,88,22.23q10,3.9,19.32,8.3h-2.64Z"/><path class="cls-73" d="M1922.36,771.62v94h3.38c-3,.89-6.12,1.73-9.25,2.53a299.4,299.4,0,0,1-39.62,7.22,365.09,365.09,0,0,1-88.51-1c-123.66-16.07-216.24-88.15-206.77-161S1699,594.55,1822.65,610.62a365,365,0,0,1,85.81,21.7q9.72,3.79,18.85,8.09h-5Z"/><path class="cls-74" d="M1922.36,770.24v91.65h5.73c-3,.87-6,1.7-9,2.47a291.84,291.84,0,0,1-38.63,7,355.9,355.9,0,0,1-86.29-.94c-120.58-15.67-210.84-85.94-201.61-157s114.46-115.89,235-100.22a356,356,0,0,1,83.67,21.15q4.74,1.86,9.34,3.83,2.3,1,4.56,2h-2.78Z"/><path class="cls-75" d="M1922.36,768.86V859.4h3.72c-1.47.4-2.94.79-4.43,1.17a284.29,284.29,0,0,1-37.64,6.86,347.27,347.27,0,0,1-84.08-.91c-117.48-15.27-205.43-83.75-196.44-152.95s111.52-112.92,229-97.65A346.88,346.88,0,0,1,1914,636.53q4.62,1.8,9.1,3.73h-.76Z"/><path class="cls-76" d="M1922.36,767.49v89.29h1.87a276.74,276.74,0,0,1-36.65,6.68,337.57,337.57,0,0,1-81.86-.89c-114.4-14.87-200-81.54-191.27-148.92s108.58-109.95,223-95.08a338.09,338.09,0,0,1,79.37,20.06q4.5,1.77,8.86,3.64h-3.3Z"/><path class="cls-77" d="M1922.36,766.11V853h4.45a269.33,269.33,0,0,1-35.65,6.5,328.55,328.55,0,0,1-79.66-.87c-111.3-14.46-194.62-79.33-186.1-144.89s105.65-107,216.95-92.51a328.17,328.17,0,0,1,77.23,19.52q4.38,1.71,8.62,3.54h-5.84Z"/><path class="cls-78" d="M1922.36,764.73v85.49h2.89c-1.39.33-2.79.65-4.2.95q-4.23.93-8.56,1.71-8.68,1.59-17.76,2.64a319.93,319.93,0,0,1-77.45-.84c-108.21-14.07-189.21-77.13-180.93-140.87s102.72-104,210.93-89.94a319.11,319.11,0,0,1,75.09,19h0Z"/><path class="cls-79" d="M1922.36,763.36v84h1.51c-2.74.59-5.51,1.15-8.32,1.66q-8.43,1.53-17.25,2.56a310.23,310.23,0,0,1-75.23-.82C1718,837.07,1639.26,775.8,1647.31,713.89s99.78-101,204.9-87.38A310.69,310.69,0,0,1,1925.15,645h-2.79Z"/><path class="cls-80" d="M1922.36,762v81.5h4.33q-4,.87-8.08,1.61-8.17,1.5-16.74,2.49a301.12,301.12,0,0,1-73-.8c-102-13.25-178.4-72.72-170.59-132.81s96.85-98.07,198.87-84.81a301.38,301.38,0,0,1,70.8,17.9h-5.57Z"/><path class="cls-81" d="M1922.36,760.6v79.85h3.26c-1.31.26-2.62.51-3.94.75q-7.93,1.44-16.24,2.41a292.41,292.41,0,0,1-70.8-.77c-98.94-12.86-173-70.52-165.43-128.8s93.92-95.09,192.85-82.23a305.16,305.16,0,0,1,35.82,6.84q8.61,2.19,16.83,4.83,4.11,1.32,8.11,2.74h-.46Z"/><path class="cls-82" d="M1922.36,759.23V837.3h2.38q-7.68,1.41-15.73,2.34a282.8,282.8,0,0,1-68.59-.75c-95.84-12.45-167.59-68.31-160.26-124.77s91-92.12,186.83-79.66a295.51,295.51,0,0,1,34.7,6.62q8.34,2.13,16.3,4.68,4,1.28,7.86,2.66h-3.49Z"/><path class="cls-83" d="M1922.36,757.85v75.56h5.44q-7.42,1.35-15.22,2.26a274.18,274.18,0,0,1-66.38-.72c-92.75-12.06-162.18-66.12-155.08-120.75s88-89.15,180.79-77.09a283.6,283.6,0,0,1,33.59,6.41c5.38,1.36,10.64,2.88,15.78,4.52,2.56.83,5.1,1.68,7.6,2.57h-6.52Z"/><path class="cls-84" d="M1922.36,756.47v74.25h1.23q-3.67.54-7.44,1A265,265,0,0,1,1852,831c-89.66-11.65-156.78-63.91-149.92-116.72s85.11-86.18,174.77-74.52a274.34,274.34,0,0,1,32.47,6.19q7.8,2,15.25,4.38h-2.2Z"/><path class="cls-85" d="M1922.36,755.1v71.68h4.55q-3.56.53-7.18,1a255.45,255.45,0,0,1-62-.68C1771.2,815.8,1706.4,765.35,1713,714.36s82.18-83.21,168.75-72a266.15,266.15,0,0,1,31.34,6c5,1.27,9.94,2.69,14.73,4.22h-5.48Z"/><path class="cls-86" d="M1922.36,753.72v70h.94a246.83,246.83,0,0,1-59.75-.65c-83.47-10.85-146-59.5-139.57-108.67s79.24-80.24,162.71-69.39a258.73,258.73,0,0,1,30.23,5.77c2.42.62,4.82,1.26,7.18,1.94h-1.74Z"/><path class="cls-87" d="M1922.36,752.35v67.44h4.51a237.63,237.63,0,0,1-57.53-.63c-80.39-10.45-140.56-57.3-134.41-104.64s76.31-77.27,156.69-66.82a249.08,249.08,0,0,1,29.11,5.55c2.33.6,4.64,1.22,6.91,1.88h-5.28Z"/><path class="cls-88" d="M1922.36,751v65.5h1.53c-2.2.18-4.43.33-6.67.45q-6.73.35-13.68.28a235.75,235.75,0,0,1-28.42-2c-77.29-10-135.15-55.09-129.24-100.62s73.38-74.29,150.67-64.24a236.81,236.81,0,0,1,28,5.34h-2.17Z"/><path class="cls-89" d="M1922.36,749.59v62.88h5.36c-2.11.18-4.25.32-6.4.43q-6.46.35-13.13.28a228.86,228.86,0,0,1-27.28-1.91c-74.2-9.64-129.75-52.89-124.07-96.6s70.43-71.32,144.63-61.67a227.33,227.33,0,0,1,26.87,5.12h-6Z"/><path class="cls-90" d="M1922.36,748.22v60.67h3.06q-6.2.32-12.58.26a218.14,218.14,0,0,1-26.15-1.83c-71.11-9.24-124.34-50.68-118.9-92.57s67.5-68.35,138.61-59.1c4.45.57,8.82,1.28,13.11,2.1q3.23.62,6.39,1.32h-3.54Z"/><path class="cls-91" d="M1922.36,746.84v58.25h1.19c-2,0-4,.06-6.06,0a211.45,211.45,0,0,1-25-1.75c-68-8.84-118.93-48.49-113.73-88.55s64.57-65.38,132.59-56.54q6.38.84,12.54,2h-1.51Z"/><path class="cls-92" d="M1922.36,745.46v55.61h5.56q-2.87.06-5.79,0a200.23,200.23,0,0,1-23.87-1.67c-64.93-8.44-113.53-46.28-108.56-84.52s61.63-62.4,126.55-54q6.09.79,12,1.92h-5.87Z"/><path class="cls-93" d="M1922.36,744.09v53h4.42a189.55,189.55,0,0,1-22.74-1.6c-61.83-8-108.12-44.07-103.39-80.49s58.7-59.43,120.53-51.4q2.89.38,5.75.84h-4.57Z"/><path class="cls-94" d="M1922.36,742.71v50.21h3.76c-1.78-.07-3.58-.17-5.38-.29-3.6-.25-7.24-.62-10.91-1.09-58.75-7.64-102.72-41.87-98.23-76.47s55.77-56.46,114.51-48.83h-3.75Z"/><path class="cls-95" d="M1922.36,741.33v47.29H1926c-3.41-.23-6.86-.58-10.34-1-55.65-7.23-97.31-39.67-93-72.45,2.13-16.39,15.33-29.76,35-38.13a122.19,122.19,0,0,1,33.68-8.56,158.35,158.35,0,0,1,19.36-1c3.33,0,6.71.17,10.12.41,1.71.11,3.43.26,5.15.43h-3.48Z"/><path class="cls-96" d="M1922.36,740v44.25h3.94c-1.63-.16-3.26-.35-4.91-.57-52.56-6.83-91.9-37.46-87.88-68.42,2-15.48,14.49-28.11,33-36a115,115,0,0,1,31.81-8.08,146.91,146.91,0,0,1,18.28-1q4.72,0,9.56.38h-3.83Z"/><path class="cls-97" d="M1922.36,738.58V779.7h4.82c-49.47-6.43-86.5-35.26-82.72-64.4,1.9-14.57,13.64-26.45,31.09-33.89a108.44,108.44,0,0,1,29.94-7.61,139.68,139.68,0,0,1,17.21-.89h-.34Z"/><path class="cls-98" d="M1922.36,737.2v37.18h2.05q-4.2-.81-8.24-1.83a131.32,131.32,0,0,1-15.39-4.93,101.67,101.67,0,0,1-25.31-14.07c-14-10.93-21.83-24.51-20-38.17s12.78-24.8,29.14-31.78a101.61,101.61,0,0,1,28.07-7.13,130.24,130.24,0,0,1,16.13-.83h-6.4Z"/><path class="cls-99" d="M1922.36,735.83v33h.71a120,120,0,0,1-14.36-4.6,94.79,94.79,0,0,1-23.63-13.13c-13.09-10.19-20.37-22.87-18.71-35.62s11.93-23.15,27.2-29.66a94.8,94.8,0,0,1,26.19-6.66q3.63-.42,7.41-.61h-4.81Z"/><path class="cls-100" d="M1922.36,734.45v28.67h.78c-2.23-.71-4.4-1.49-6.5-2.31a88.12,88.12,0,0,1-21.94-12.19c-12.16-9.47-18.91-21.25-17.38-33.08S1888.4,694,1902.58,688a87.62,87.62,0,0,1,24.32-6.18h-4.54Z"/><path class="cls-101" d="M1922.36,733.08v24.33h2.21a81.32,81.32,0,0,1-20.25-11.26c-11.23-8.74-17.46-19.61-16-30.53s10.22-19.85,23.31-25.43a73.59,73.59,0,0,1,10.57-3.54c1.88-.47,3.81-.9,5.8-1.26h-5.6Z"/><path class="cls-102" d="M1922.36,731.7v17.6h.11a67.1,67.1,0,0,1-8.54-5.62c-10.29-8-16-18-14.7-28s9.37-18.18,21.37-23.3q2.25-1,4.68-1.77h-2.92Z"/><path class="cls-103" d="M1922.36,730.32v10.9h1.19c-9.35-7.28-14.55-16.34-13.37-25.45a22.15,22.15,0,0,1,6.07-12.26,33.09,33.09,0,0,1,5.89-4.93c1.12-.75,2.31-1.45,3.55-2.12h-3.33Z"/><path class="cls-104" d="M1922.36,729v-1h1.24a19,19,0,0,1,3-23.11h-4.24Z"/></g><polyline class="cls-105" points="960.83 759.01 1049.7 761.19 1066.17 762.63"/><polyline class="cls-105" points="1437.67 946.61 1574.44 950.33 1599.72 951.65"/><polyline class="cls-105" points="985.02 906.62 1121.79 910.34 1147.07 911.66"/><path class="cls-105" d="M582.64,956.36l-89.33-1.42c-.63,0,73.24-2.32,152.27-1,47.81.8,87.76,2.49,116.29,4"/><polyline class="cls-105" points="409.17 690.56 590.39 687.76 623.95 688.33"/><path class="cls-105" d="M140.27,836.16l51.06-.5c2.35-.2,112.88.93,165.8,1.69C357.13,837.35,164.57,836.16,140.27,836.16Z"/></svg>