<?xml version="1.0" encoding="utf-8"?>
<!-- Generator: Adobe Illustrator 25.4.1, SVG Export Plug-In . SVG Version: 6.00 Build 0)  -->
<svg version="1.1" id="Layer_6" xmlns="http://www.w3.org/2000/svg" xmlns:xlink="http://www.w3.org/1999/xlink" x="0px" y="0px"
	 viewBox="0 0 1909.3 1088.9" style="enable-background:new 0 0 1909.3 1088.9;" xml:space="preserve">
<style type="text/css">
	.st0{opacity:0.99;}
	.st1{fill:#9ADAFD;}
	.st2{fill:#00B033;}
	.st3{fill:#47CA57;}
	.st4{fill:#593627;}
	.st5{fill:#6F5043;}
	.st6{fill:#563132;}
	.st7{fill:#B2B0A1;}
	.st8{fill:#777776;}
	.st9{fill:#00A833;}
	.st10{fill:#3D8BF7;}
	.st11{fill:#FFFFFF;}
	.st12{fill:#EDDD34;}
	.st13{fill:#906148;}
	.st14{fill:#7F492D;}
	.st15{fill:#230F00;}
	.st16{fill:#452E2E;}
</style>
<path d="M1782.1,32.9c0,0.6-10.4-3.7-24-6.1c-2.5-0.6-5-0.7-7.5-0.5c-5.9,0.7-10.7,3.8-14,6.4c-0.1,0-0.2,0-0.2,0s0.1-0.1,0.1-0.2
	c8.8-10,18-9.3,18-9.3c4.2,0.3,7.5,1.4,14.2,3.5c3.3,1.1,6.4,2.4,9.5,4C1779.8,31.4,1782.1,32.6,1782.1,32.9z"/>
<g>
	<g class="st0">
		<rect x="-19.1" y="-0.5" class="st1" width="1928.3" height="1083.1"/>
	</g>
	<path class="st2" d="M1127,287c0.1-5.3,15.4-8.1,51.5-16.7c61.7-14.7,45.4-13.4,91-23.6c52.9-11.8,100.9-19.5,141.1-24.6
		c32.6-4.2,75.8-9.6,127.7-10.5c21.6-0.4,50.7,0,53,0c22.6,0.3,38,0.8,67.7,1.8c29.4,1,44.3,1.5,53.9,2.7c16.9,2.1,31,5,50.3,9
		c17.3,3.6,30,6.7,39.3,9c27.5,6.7,41.2,10.2,54.9,15.3c13.4,5,32,13.3,53.1,27.4c-0.4,21.8-0.8,43.6-1.2,65.4c0,3.2-0.1,8.1-0.1,14
		c0,10,0.3,22.4,0.4,31.3c0.4,21,0.5,22.9-1.5,25.1c-5.7,6.4-18,3.4-30.3,1.2c-20.5-3.8-41.5-3-62.1-5.8c-33.6-4.4-59.1-6.7-86.3-9
		c-24.7-2.2-23.5-1.5-56.8-4c-73.6-5.4-123.7-11.9-135.4-13.4c-14.6-1.9-31.6-4.2-54.5-7.9c-48.1-7.9-84.2-16.2-144.2-30
		c-24.7-5.7-45.5-10.7-60.1-14.2c-6-1.4-22.4-5.4-60.9-15C1137.8,294.8,1126.9,291.5,1127,287z"/>
	<path class="st3" d="M113.7,368c0,0,74.6-35.2,92-43.2c14.8-6.8,69-30.7,201.7-56.8c68.4-13.4,192.5-37.2,360.8-39.5
		c110-1.5,164.9-2.4,237.7,13.8c52.7,11.7,119.2,32.7,202,59c33.6,10.6,59.7,19.3,103,31.4c31.4,8.8,73.6,20.5,126.8,31.4
		c36.8,7.5,85.7,16.1,142.8,22c70.2,7.3,151.8,10.6,201.8,15.3c2.5,0.2,10.1,0.9,20.3,1.7c11.8,0.9,41.9,2.1,52,2.7
		c12.9,0.7,31.1,2.4,53.5,6.9c1.4,16.4,1.8,29.8,1.9,38.7c0.2,11.1-0.1,25.3-0.7,53.8c-0.3,15.7-0.5,19-0.4,26.7
		c0.3,17.4,1.2,18.1,0.7,29.6c-0.7,14.7-2.4,15.8-0.7,22.4c0.6,2.6,2.3,7.9,0.2,9.4c-1.5,1-5.3,0.3-5.3,0.3s-16.7,0.5-27.4,0.8
		c-10,0.3-14.2-0.1-35.9-0.7c-13.6-0.4-27.3-0.6-40.9-1c-68.4-2.2-192-0.9-218.5-0.7c-68.9,0.6-77.9-2-233.8-2.1
		c-283.5-0.2-260.3-2.9-431.1-2.1c-217.1,1-382.6,6.1-454.7,8.5c-47.4,2.5-171.3,8.7-291.7,12.8c-16.9,0.6-74,9.9-149.4,4
		c-17.6-1.4-32.1-3.2-41.6-4.5c0-7.9,0-15.8,0-23.7c0-7.5,0-14.9,0-22.4c0-5.9,0-11.8,0-17.7c0-4.5,0-8.9,0-13.4
		c0-7.6-0.1-8.7,0-12.6c0.2-4.3,0.5-10.2,0.5-10.2s7.6,1.6,19.5,4c0,0,9.6,0.8,26.1,0.5c11.8-0.2,9.8,0.3,17.1-0.1
		c6.3-0.3,2.5-0.3,26-2.2c15.6-1.3,22.1-1.7,31.4-4.5c10.1-3,14.5-6.1,17.5-9.8c1.3-1.6,4.8-6,4.9-12c0.1-4.9-1.8-8.5-2.7-10.3
		c-4.9-2-11.2-5.5-16.5-11.7c-19.9-23.2-5.9-61.6-3.5-68.2C103.3,382.8,109,374,113.7,368z"/>
	<path d="M1436.6,38.1c0,0.7-22.7-4.5-52.3-7.5c-5.4-0.7-10.8-0.9-16.3-0.6c-10.6,0.7-20.9,3.4-30.5,7.8c-0.2,0-0.4,0-0.4,0l0.2-0.2
		c11.7-7.4,25.3-11.3,39.2-11.4c9.1,0.4,16.4,1.7,31,4.3c1.6,0.3,9.8,1.8,20.7,4.8C1431.6,36.4,1436.6,37.8,1436.6,38.1z"/>
	<path d="M1248.3,40.6c0.1,0.6,44.7-10.8,58.8-9.7c6.1,0.6,12.1,1.7,18,3.1c1.2,0.3,2,0.6,2.6,0.8c5.9,1.7,9.7,3.4,9.7,3
		c0-0.2-0.7-0.6-0.8-0.6c-16.7-10.4-29.8-9.3-29.8-9.3l0,0C1274.5,27.9,1248.2,40.1,1248.3,40.6z"/>
	<path d="M1695.5,81.9c0,0.8-22.7-4.7-52.3-7.8c-5.4-0.7-10.8-0.9-16.3-0.6c-10.6,0.8-20.9,3.5-30.5,8.1c-0.2,0-0.4,0-0.4,0l0.2-0.2
		c11.6-7.6,25.3-11.7,39.2-11.8c9.1,0.4,16.4,1.8,31,4.4c7,1.3,13.9,3,20.7,5C1690.6,80.1,1695.5,81.6,1695.5,81.9z"/>
	<path d="M1507.2,84.5c0.1,0.7,44.7-11.2,58.8-10c6.1,0.7,12.1,1.7,18,3.3c1.2,0.3,2,0.6,2.6,0.8c5.9,1.8,9.7,3.5,9.7,3.2
		c0-0.2-0.7-0.6-0.8-0.7c-16.7-10.8-29.8-9.7-29.8-9.7l0,0C1533.4,71.3,1507.2,84,1507.2,84.5z"/>
	<path d="M1695.5,35.4c0,0.5,20.6-8.8,27-7.9c2.8,0.5,5.6,1.4,8.3,2.6c0.5,0.2,0.9,0.5,1.2,0.6c2.7,1.4,4.5,2.8,4.5,2.5
		c0-0.1-0.3-0.5-0.4-0.5c-7.7-8.5-13.7-7.6-13.7-7.6l0,0C1707.5,25,1695.5,35,1695.5,35.4z"/>
	<path d="M314.6,465.8"/>
	<path class="st4" d="M320.1,420.6l133.9,2.1l8.2,23.7l5.7,10.2H311.4c1-4.8,2-9.7,3.2-14.7C316.3,434.5,318.2,427.4,320.1,420.6z"
		/>
	<polygon class="st5" points="320.1,420.6 319.8,422.5 454.4,424.5 454,422.7 	"/>
	<polygon class="st5" points="318.9,424.5 318.6,426.4 455.2,428.4 454.9,426.6 	"/>
	<polygon class="st5" points="317.6,429.3 317.2,431.2 457,433.3 456.6,431.5 	"/>
	<polygon class="st5" points="316.5,434.2 316.1,436.1 458.7,438.1 458.3,436.3 	"/>
	<polygon class="st5" points="315.2,439 314.8,441 460.3,443 459.9,441.2 	"/>
	<polygon class="st5" points="314.6,443.9 314.2,445.8 462.2,447.8 461.8,446 	"/>
	<path class="st6" d="M312.8,448.8l0.5,2l151.2,1.9l-0.4-1.8L312.8,448.8z"/>
	<path class="st6" d="M312.8,454.6l-1.5,2h155.5l-0.4-0.9L312.8,454.6z"/>
	<path class="st7" d="M1910.4,772.5v315.8H363l-381.7,0.6l0.2-480.3l0,0c47.1-2.1,121.1-5.3,211.7-8.3
		c70.3-2.4,248.7-8.1,502.1-10.6c164.9-1.7,296.7-1.5,459.1-1c81.6,0.2,167.5,0.6,292.9,1.3c129.2,0.8,285.3,1.8,463.3,3.4"/>
	<polyline class="st8" points="940.8,760.4 1029.7,762.6 1046.1,764 	"/>
	<polyline class="st8" points="1417.6,948 1554.4,951.8 1579.7,953.1 	"/>
	<polyline class="st8" points="965,908 1101.7,911.8 1127,913.1 	"/>
	<path class="st8" d="M562.6,957.8l-89.3-1.4c-0.6,0,73.2-2.3,152.3-1c47.8,0.8,87.8,2.5,116.3,4"/>
	<polyline class="st8" points="389.1,692 570.3,689.2 603.9,689.8 	"/>
	<path class="st8" d="M120.2,837.6l51.1-0.5c2.4-0.2,112.9,0.9,165.8,1.7C337.1,838.8,144.5,837.6,120.2,837.6z"/>
	<path class="st9" d="M81.3,1085.7c-0.5-10.9-1.7-26.5-4.6-45c-2.8-18.5-6.6-32.2-10.6-50.5c-11.6-53-23.2-86.5-22.4-87.2
		c0.8-0.6,12.6,32.9,22.4,64.1c5.8,18.6,10,32.9,10.6,32.5c1.1-0.8-11.7-43.4-18.5-104.7c-2-18.2-2.5-23.2-2.2-23.2
		c0.7-0.3,5.8,43.3,19.4,94.8c4.7,17.7,8,27.2,8.5,26.9c1-0.6-3.3-23.9-9.3-55.8c-6.1-32.7-6.3-31.8-7.1-38.8
		c-3.4-31.3,2.2-39.8,0.5-65.7c-2.6-40.7-19.3-65.5-18.3-66.5c1-1,16.7,23.1,19.4,56.3c0.6,7.4,0.8,18,1,28.7
		c0.3,18.4-0.1,22.8,0.8,33.7c1.2,15.3,4.1,30.2,5.3,30c2.3-0.5-0.5-53,2.4-53.5c0.8-0.1,1.1,4.5,4.4,7.8c1.7,1.8,7.7,4.6,5.7,3.6
		c2.7-2.6,5.2-3.2,6.6-1.4c0.7,1.3,1.1,2.8,1.2,4.5c0.4,4,0.1,8.2-0.7,11.9c-0.3,8.6,0.1,10.6,0.4,10.6c0.9,0.3,4.4-8.7,4.7-18.6
		c0-2,0-4.8,1.1-6c1.3-1.3,5.9,1.3,4.4,0.8c-0.1,4.5,0.1,8.4,1.3,9.2c1.4,0.9,3.2-3.7,4.4-2.8c1.5,1,0.2,8.3,0.4,17.7
		c0.2,8.3,1.3,18.4,2.7,18.4c2,0.1,3.6-22.2,4.6-22.1s-3.2,41.3-0.2,42.5c1.4,0.6,4.5-7.8,5.5-16.1c1.2-9.1-0.3-16-2.7-27.1
		c-2.7-11.9-6.2-23.6-10.5-34.5c-2.8-7.5-5.4-13.3-5.2-13.7c0.2-0.4,3.7,6,5.6,10c12,25.3,15.6,50.7,17.8,49.8
		c0.8-0.3,0.3-4,1.8-12.9c1.3-7.7,3.4-15.2,4.6-14.8c0.8,0.3,0.7,4.1,1.6,4.3c0.9,0.3,2.1-4,3-7.8c0.8,2.8,1.4,3.6,1.8,3.3
		c0.9-0.1,1-4.7,1.9-4.8c0.7-0.1,1.2,2.9,1.9,2.8c0.4,0,0.9-1.3,1.4-6c-2.6-19.9-4.2-30.8-5.1-36.9c-0.5-2.8-0.9-5.5-1.1-8.3
		c-0.6-6.8-0.1-11.5-1.6-30.5c-1.8-22.8-6.2-45.4-5.3-45.9c0.6-0.3,2.6,6.9,3.8,12.3c0.9,3.8,2.1,9.8,3.3,22.6
		c1.4,14.5,0.9,17.6,2.6,31.4c0.2,1.5,0.6,4.8,1.6,11.6c4,29.1,4.5,31,5.1,31c1.9,0,3.9-18.5,4.6-32.4c0.9-17.2-0.1-29,0.4-29.1
		c0.5-0.1,2.3,10.8,2.5,24c0.1,11.1-1.1,15.3-1.8,29c-0.8,16.2-2.1,23.9-0.2,25.4c1,0.5,2.1,0.1,2.9-1c1.8-2.4,1.1-7.4,0.9-14
		c-0.2-6.8,0.5-4.5,0.9-18c0.3-10.6,0.1-18.4,0-20.5c-0.1-5.9-0.5-11.6-1.1-17.2c-0.6-6-1.8-9.4-1.3-10c0.5-0.5,2.4,3.6,3.5,8.2
		c1.1,4.3,1.1,7.8,1.1,12.4c0.1,16.7,0.3,12.3,0.2,18c-0.1,10.7-0.5,13-0.7,24.4c0,4.5,0,7.8,0,10.6c0.1,9.1,0.3,17.5,0.6,29.5
		c0,0.5,0,0.5,0,0.5c0.6,21.7-4.4,40.7-3.6,41.1c0.9,0.6,12.1-29.9,20.9-74.4c0.9-4.3,4.7-24,8.2-50.9c2.8-21.4,3.4-45.3,4.6-45.2
		c0.4,0,0.7,2.6,1.2,6.6c0.3,2.2,0.5,4.3,0.6,6.4c0.4,9.2-1.9,25.5-2.2,27.4c-2.8,19.9-2.5,18.2-2.8,20.2c-1.4,8.9-1.8,9.8-4.4,24.6
		c-2.3,13.1-2.1,12.9-3.3,18.6s-2.5,11.1-5.1,21.7c-2.8,11.1-4.1,16.7-4.7,18.4c-4.5,14.2-7.7,15.4-8.4,24.4
		c-0.6,7.5,0.9,16.3,3.3,17c1.9,0.5,3.9-4.5,6.3-11.5c5.7-16.1,10.3-33.1,13.8-50.7c2.6-14.5,1.4-11.1,5.5-36.1
		c2.9-17.7,3.9-21.6,4.7-31.7c0.9-10.6,1.1-21.7,1.2-28.5c0.2-13.1-0.1-20.8,0.4-20.9c0.5-0.1,1.4,9.2,2,17.1
		c0.9,11.6,0.9,23.2,0,34.7c-1.1,12.5-2.1,10.2-5.6,35.5c-1.1,8.2-1.4,11.5-3,22.3c-1.4,10-2.2,14.9-3.4,21.4
		c-1.7,9.1-3.5,16-5.6,23.9c-3.6,13.8-4.4,14.9-5.8,22.3c-1.8,10-2.9,21.7-1.8,22.3c0.4,0.1,1.4-1.4,9.4-30.9
		c3.8-14,7.1-26.8,11-42.4c4.8-19.9,5.8-25.1,6.4-30.9c0.6-4.6,1-10.5,1.9-21.8c1.4-17.6,1.5-22.5,1.9-22.5c0.7,0,2.1,15.6,1.1,33.2
		c-0.6,10.5-1.8,17.7-3.9,30.8c-1.7,11.6-4,23.1-6.8,34.2c-2.4,9.3-5.9,20.8-10.4,36c-3.4,11.5-5.6,18.3-4.2,20.3
		c0,0.1,0.1,0.2,0.2,0.2c2.5,0.6,11.2-30.6,12.3-30.3c0.6,0.2-1.1,8.3-3,23.9c-0.6,4.9-1,8.6-0.4,8.7c1.2,0.3,5.5-16.3,6.8-16
		c0.6,0.1,0.2,3.4-0.4,12.9c-0.7,11.1-0.4,11.9-0.3,11.9c0.7,0.1,2.4-14.4,4-14.4c1.8,0.1,2.2,18.7,2.8,18.7c0.4,0,0-10.2,0.8-23.4
		c0.7-11.5,1.8-23,3.4-34.2c0.7-5.5,1.4-9.8,2-13.9c1.4-8.7,2.5-16.1,4.3-24.8c1.6-8.3,3.7-16.5,6.2-24.4
		c0.4,0.3-17.2,95.6-14.2,112.3c0.4,2.2,1.9,7.4,3.6,17.2c0.9,5.4,1.2,5.5,1.4,5.6c3.6,1.3,19.6-35.1,20.9-34.5
		c1.9,0.8-25.9,71.9-24.6,72.4c0.8,0.3,12.7-24,23.7-52.9c3.7-9.7,8.2-22.3,8.7-22.2c0.9,0.3-13.2,43.4-9.9,44.7
		c1.3,0.5,3.9-5.5,5.5-5c2.5,0.9-1.9,16.6-4.1,36.2c-3.2,27.9-3.4,29.2-3.3,29.2c0.7,0.3,7.6-63.3,15-113.1
		c1.5-10,3.6-23.6,2.2-40.3c-0.5-5.2-1.4-12.1-3.4-26c-1.6-10.8-2.4-16.5-3.2-19c-1.2-3.1-2.1-6.4-2.9-10
		c-1.7-7.8-1.1-11.1-2.5-12.4c-2.3-1.8-4.8,5.4-9.2,5.2c-3.5-0.1-6-4.7-8.9-10.5c-2-3.7-6.6-12.5-7-24.5c-0.2-5.2,0.6-7.8-0.4-13.9
		c-1-6.1-2.6-9.2-2.1-10c1-1.5,6.5,8.9,16.2,15.3c7.6,4.8,8.1,1.5,11.1,5.2c6.6,8.2,4.9,27.9,8.1,48c0.5,3.2,1.2,6.3,2,9.3
		c1.1,4.3,2.5,10,3.4,9.7c0.2,0,1-0.8,0.8-14.4c-0.1-9.4-0.6-15.2-0.8-20.2c-0.1-2.6,0-12.6,0.4-32.7c0.3-17.1,0.3-18.5,0-21.8
		c-0.8-8.3-2.1-10.8-1.6-17.6c0.2-2.9,0.7-6.3,1-12.9c0.2-3.8-0.1-6.3,0.2-6.4c0.5-0.1,1.8,6,2.6,10.8c0.6,3.8,1,7.8,1.2,11.9
		c0.6,11.4,0.6,19.3,0.6,19.3c0,10.8,0.3,21.8,0.4,32.7c0.2,26.9,0.3,40.6,0.2,46.5c-0.1,9.4-0.2,18.6-0.6,30.8
		c-0.5,13.3-1.2,25.3-2.8,48.8c-1.6,24.8-2.5,35.2-2,35.4c0.5,0.1,1.5-7.8,4.4-26.7c2.5-15.7,2.2-13,5.2-31.8
		c3.5-21.4,7.4-43.3,7.4-43.3c9.2-50.7,13.8-76.1,17.3-92.4c7.5-34.8,15.2-63.7,16-63.2c1.5,0.9-19.3,93.3-13.8,97.1
		c1.8,1.3,6.1-7.4,10.8-16.5c8.1-16.1,9.9-25.9,10.8-25.4c2.4,1.4-5.7,72.6-22,78.7c-1.8,0.8-7.7,2-11.9,9.7
		c-1.6,3.2-2.8,6.8-3.6,10.6c-2.9,12.9-5.3,25.9-7.2,39.2c-1.3,9.4-2.7,19-4,28.6c-3.1,22.5-3.6,26.2-5,34.8
		c-0.7,4.5-1.5,8.9-3,18.4c-1.5,9.4-1.5,9.4-2.2,14.2c-1.6,9.4-2.3,12.3-4,21.8c-1.9,10.8-2.8,16.3-2.9,17.7
		c-0.6,6.3-0.7,13.3-2.8,14.2c-0.3,0.1-0.3,0-1.8,0c-1.9,0-3,0-4.2,0.1c-5.3,0.1-17.3,0-17.3,0c-7.4-0.1-15.5-0.1-31.6-0.1
		c-11.4,0-8.7,0-29.6,0.1h-28.4c-17,0-18.5,0-20.3,0c-0.7,0-1.9,0-3.6,0c-2.1,0-2.4,0-4.2,0.1h-3.9c-2.5,0-2.9,0-3.2,0H89
		C86.4,1086.6,83.9,1086.2,81.3,1085.7z"/>
	<path class="st10" d="M42.6,856.9c-2.7,0.3-2.4,4.1-6.2,6.4c-3.9,2.5-6.6-0.2-9.6,2.2c-2.4,1.9-1.1,3.9-4,9.2
		c-1.5,2.8-3.5,5.4-5.9,7.5c-4.4,4.1-6.2,3-8.3,6.2c-2.2,3.5-2.8,7.8-1.6,11.8c1.1,3.3,3.1,3.7,3.2,6.7s-1.9,3.9-1.3,6.4
		s2.6,2.6,4,5.3c1.5,3-0.7,5.7,0.5,6.7c1,0.8,2.4-0.7,4,0c2.4,1,1.5,5,3.5,5.9c2.1,0.9,5.7-3,8-5.6s2.2-4.2,4.5-6.2
		c1.4-1.1,2.9-1.9,4.5-2.5c10.5-4.6,11.1-4.8,12.3-5.9c2.4-1.9,4-4.6,4.8-7.5c0.5-2.8,0.6-5.6,0.3-8.4c-0.2-2-0.6-3.2,0-4.8
		c0.3-0.8,0.8-1.4,2.9-3.3c3.7-3.3,4.2-3.2,4.5-4.2c0.9-2.4-0.8-6.1-3.2-7.5c-2-1.2-3.7-0.3-4.5-1.7c-0.5-0.9,0-1.7,0.3-4.5
		s0.4-4.4-0.3-5.6c-1-1.7-2.6-1.1-6.1-2.8C44.8,858.7,44.6,856.6,42.6,856.9z"/>
	<path class="st10" d="M91.3,823.5c-2.7,0-7.4,0-9.6,2.8c-3,3.8-1.3,12.1,1.6,17.3c1.4,2.5,2.9,4,2.4,5.9c-0.7,2.5-3.9,1.9-5.9,4.5
		c-3.5,4.6,0.9,14.4,3.7,19c1.6,2.8,3.8,5.3,6.4,7.2c1.4,1,9.6,6.8,15,3.4c1.5-1.1,2.7-2.5,3.5-4.2c1.2-2.9,0.1-4.4,1.3-6.2
		c1.5-2.2,3.9-0.8,6.9-2.8c2.8-1.9,2.4-4.2,5.3-8.1c2.6-3.5,3.6-2.6,6.7-5.9c3.5-4,5.7-9,6.4-14.3c0.4-3.8,0.1-9.1-1.9-9.8
		c-1.5-0.5-3,1.8-4.3,1.1c-0.9-0.5-0.5-2-1.1-4.8c-0.5-2.4-1.5-4.7-2.9-6.7c-1-1.8-2.4-3.4-4-4.8c-1.9-1.4-4.1-2.2-6.4-2.5
		c-2.7-0.5-6.6-1.3-10.2,0.8c-1,0.6-3.2,1.9-3.7,4.2c-0.5,2,0.6,3,0,3.9C99.6,825.4,96.1,823.5,91.3,823.5z"/>
	<path class="st10" d="M54.3,796.9c-1.6,3.1-0.2,4.4-1.7,6.4c-2.2,2.8-5.7,0.8-7.9,3.5s-0.2,5.9-2.2,7.6c-2,1.6-7.2,0.1-9-3.1
		c-1.8-3.1,0.5-5.6-1.4-8.4c-2-3-6-1.9-7-4.6c-0.8-2.2,1.7-3.9,0.7-5.9c-1.1-2.2-5-0.9-6.3-3.2c-0.8-1.4-0.2-3.2,0.7-5.9
		c0.8-2.4,1.7-5,4-6.8c2.8-2.2,4.6-0.9,7.6-3.4c1.3-0.9,2.3-2.2,2.8-3.7c0.9-2.5-0.3-4-1.1-8c-0.7-3.8-1.6-8.3,0.5-11.5
		c0.9-1.4,2.3-2.3,5.1-4.1c1.6-1.1,3.5-2,5.3-2.7c2.4-0.8,4.2-0.8,7.7-1c4.6-0.1,6.9-0.1,8.4,1.1c0.9,0.8,1.6,2.3,2.9,5.3
		c0.9,1.8,1.6,3.8,2,5.7c0.2,2,0.3,4.1,0,6.1c-0.3,3.8-0.8,4.7-1.2,7.4c-0.4,3.2,0.4,3.6,0.4,8.5c0,3.7,0,5.6-1.2,7
		c-1.4,1.7-2.9,1.1-4,2.8c-1.1,1.7,0.1,3-0.8,5.5C57.9,794.3,56,793.8,54.3,796.9z"/>
	<g>
		<path class="st10" d="M112.8,742c-1.2,0.7-3.7-5.2-8-5.5c-3.1-0.2-6,2.9-7.3,5.5c-2.3,4.7-0.4,10.1,0.3,12
			c1.4,3.8,2.8,4.1,2.8,6.5c0,4-4,4.8-4.2,8.4c-0.2,4.5,5.9,8.6,10.1,10.2c2.6,1,4.9-0.4,5.9,1.1c0.8,1.2-0.1,2.6-0.4,5.1
			c-0.1,0.7-0.4,6.6,1.7,7.6c1.8,0.9,5.3-1.7,6.9-4.7c1.4-2.6,0.5-3.8,1.9-5.2c2.1-2.2,4.9,0.2,8.2-1.7c3.3-1.9,2.7-5.9,5.9-6.9
			c2.1-0.7,2.9,0.8,4.5,0c2.6-1.3,3.7-6.8,2.4-11.3s-3.9-4.6-4.9-9.1c-0.8-4.2,0.9-6.6-0.3-7.6c-2.1-1.8-8.2,4.1-9.7,2.5
			c-0.8-0.8,0.6-2.8,1.4-7.6c0.6-3.8,1.1-6.7-0.4-8.7c-0.5-0.7-0.9-0.9-6.2-2.9c-5.6-2.1-6.3-2.2-7.3-1.8c-2.4,1-3.2,4.3-3.5,5.5
			C111.7,737.9,113.8,741.4,112.8,742z"/>
	</g>
	<path class="st10" d="M192.1,731.7c-3.8-1.3-2.2-9.5-6.2-11.3c-3.2-1.4-8.3,2-10.4,6.2c-1.7,3.8-1.6,8.3,0.4,12
		c1.5,2.9,3.5,3.7,3.1,5.1c-0.6,2.5-7.4,0.9-9.4,4.4c-1.5,2.6,0.3,7.4,3.1,9.8c3.5,3,8.2,2.1,8.3,3.3s-4.9,1.5-5.9,4.4
		c-1.2,3.3,3.3,9.5,7.3,9.5c3.2-0.1,4.5-4.1,7.4-3.6c1.8,0.3,2.1,2.1,4.1,4c5.3,5,14.1,2.7,14.6,2.5c0.7-0.2,8.9-2.6,9.4-7.3
		c0.4-3.5-3.9-6.4-2.8-8.4c0.7-1.2,2.5-0.5,3.8-1.8s1.2-3.7,0-8.4c-1.6-6.1-2.6-10.1-5.9-14.9s-6.4-9.3-10.8-9.5
		C197.3,727.5,195.2,732.8,192.1,731.7z"/>
	<path class="st10" d="M249.8,817.8c4.7-0.5,6.3-5.3,9.6-4.6c2.1,0.5,1.9,2.7,4.3,3.8c4.4,2.2,12.7-1.6,13.5-6.9
		c0.2-1.8-0.2-3.6-1-5.2c-1.5-2.7-4-3.9-3.8-4.2c0.2-0.5,5.6,3.6,8,1.8c1.2-0.9,0.5-2.3,1.7-5.5c1.6-4.1,4.1-4.6,3.8-6.2
		c-0.5-3-8.7-1.4-11.8-6.5c-0.7-1.1-0.9-3.8-1.4-9.1c-0.6-6.4-0.2-7.7-1.4-8.7c-2.2-2.1-7.4-0.9-10.4,1.8c-2.6,2.4-2.8,5.2-3.8,5.1
		c-1.8-0.2,0-9.6-5.2-15.6c-2-2.3-5.8-5-9-4c-4.2,1.2-5.8,8-6.9,13.1c-0.7,3,0.8,6.2-1,8c-0.8,0.8-1.6,0.7-2.7,2c-1,1.1-1.7,2.5-2,4
		c-0.3,2.3,1.1,3.1,2.4,6.9c1.7,4.7,0.9,7.3,2.6,8.1s3-1.2,4-0.5s-0.4,3.7-0.6,7.8c-0.1,1.9-0.3,6.6,2.6,10.3
		C242.9,815.8,246.2,818.2,249.8,817.8z"/>
	<path class="st10" d="M295.8,760c-3.3-1.6-6-5.7-5.6-8.9c0.2-1.8,1.4-2.5,1-3.9c-0.6-2-3-1.9-3.6-4c-0.6-1.8,0.9-2.6,0.4-4.2
		c-0.7-2.5-4.5-1.7-7.1-4.7c-2.8-3.2-2-8.3-1.8-9.6c0.3-2,0.7-4.3,2.4-5.5c2.4-1.7,5.3,0.3,6.3-1.1s-1.7-3.8-1.5-8.1
		c0.2-2.4,1.2-5.8,3.6-6.8c3.4-1.5,7.8,2.6,8.5,3.2c4.7,4.3,4.6,9.7,7.5,10.1c2.3,0.3,3.3-2.8,5.5-2.3c1.3,0.3,1.9,1.5,4.4,6.3
		c2.1,4.1,3.3,6,3.5,6.5c3.4,4.6,6.5,4.3,7,7.1c0.4,2.6-2.3,3.2-2.5,7.1c-0.2,3.1,1.4,3.5,1.8,7.8c0.3,3.2-0.6,4-0.5,6.6
		s1.9,2.7,2.8,6c0.2,0.8,0.9,3.7-0.4,5.7c-1,1.6-2.4,0.9-5.3,2.7c-3,1.7-2.7,3-4.5,3.6c-3.2,1-7.8-1.9-10.1-5.5
		c-2-3.3-1-5.1-2.9-6.7C302.4,759.1,299.8,761.8,295.8,760z"/>
	<path class="st11" d="M38.1,882.6c-1.6,0.1-1.8,1-5.5,2.8c-3.6,1.8-4.1,1.3-5.5,2.5c-2.9,2.5-3.3,6.7-3.3,7.3
		c-0.2,3.1,0.7,8,4.1,9.7c2.4,1.2,4.9,0.2,7.3-0.8c3.7-1.4,6.7-4.1,8.5-7.6c1-1.9,3.1-6.3,1-10.1C43.4,884.1,40.8,882.6,38.1,882.6z
		"/>
	<path class="st11" d="M111.6,843.1c-1.3-0.5-2.7-0.1-5.3,0.9c-2.3,0.8-4,1.3-5.5,3c-1.3,1.5-2.1,3.4-2.2,5.3c0,0.6-0.3,5.5,3.6,8.2
		c1.7,1.2,3.9,1.6,6,1.3c4.5-0.9,6.4-6.2,6.8-9.5S114.5,844.2,111.6,843.1z"/>
	<path class="st11" d="M50.1,768.6c-2.3-1.7-5.6-0.5-7.3,0.6c-0.7,0.5-1,0.8-4.3,5.3c-2.9,3.9-3.1,4.2-3.4,5.1
		c-0.2,0.6-1.2,4.2,0.9,7.1c1.4,1.8,3.5,2.8,5.8,2.8c4,0,6.6-3.2,7.7-4.6c2.3-3,3.4-6.8,3.1-10.7C52.2,772.4,51.9,769.9,50.1,768.6z
		"/>
	<path class="st11" d="M122.1,754.9c-2-0.7-1.3-4.6-3.4-5.4s-4.8,2-5.8,3c-1.4,1.4-2.4,3.1-3.1,5c-0.9,2.2-1.1,4.5-0.6,6.8
		c0.9,2.8,2.9,5.2,5.6,6.4c3.6,1.6,6.9,0.3,9.2-0.6c2.3-0.9,5.3-2,6.7-5.2c0.9-2.2,1-4.6,0.4-6.8c-0.3-1.8-1-5.3-2.9-5.8
		C126,751.7,124.2,755.6,122.1,754.9z"/>
	<path class="st11" d="M191.4,738.3c-1.1,0.5,0.7,4.8-1.3,7s-6.3-0.1-7.5,1.6c-1.4,2,2,8.7,7.5,11.6c4.1,2.2,10.7,3.1,14.2-0.8
		c2.2-2.5,2.3-5.9,2.3-7.8c0-1.1,0.1-7.2-2.9-8.7c-2.4-1.2-4.5,2-7.8,0.8C193.2,741.1,192.3,738,191.4,738.3z"/>
	<path class="st11" d="M259.9,787.7c-1-0.8-0.4-1.8-1.5-3.2c-1.2-1.5-3-2.3-4.9-2.2c-3.1,0.3-5.2,3.9-5.7,6.8
		c-0.9,6,5.5,10.7,6.7,11.6c2.1,1.5,5.6,4.1,9,2.7c4.3-1.7,4.8-8.1,4.9-8.9c0.1-1.3,0.4-5.2-1.5-6.5S261.8,789.4,259.9,787.7z"/>
	<path class="st11" d="M303.8,726.4c1.9,0.1,3.8,0.6,5.4,1.6c2.5,1.5,3.6,3.7,4.9,6.2s2.2,5.3,2.6,8.1c0.4,3.2,0.7,5.7-0.8,7
		c-1.8,1.7-5.9,1.1-7.8-1.1c-1.7-2-0.8-4.2-2.8-6c-1.1-0.9-1.5-0.4-3.4-1.3c-2.1-1-3.8-2.6-4.9-4.6c-0.4-0.8-2.4-4.5-0.8-7.3
		S302.3,726.3,303.8,726.4z"/>
	<path class="st10" d="M163.8,810.7c2.8-0.1,7.8-0.2,9.5-3.6c1.4-2.7,0.5-6.9-1.7-8.1s-4.6,1.6-7.4,0.5c-2.4-1-3.4-4.2-3.6-4.7
		c-0.6-2,0-2.6-0.6-4.4c-0.1-0.2-1.2-3.3-3.8-4.3c-3.2-1.3-7.7,1.2-8.7,4.4c-0.4,1.2-0.1,2,5.2,11.3c3.1,5.5,4.5,7.7,7.3,8.7
		C161.2,810.7,162.5,810.8,163.8,810.7z"/>
	<path class="st11" d="M162,805.7c1,0,2.8,0,3.4-1.4c0.5-1.2,0.2-2.5-0.7-3.3c-0.8-0.5-1.6,0.6-2.7,0.1c-0.7-0.5-1.2-1.2-1.4-2
		s0-1-0.3-1.8c-0.2-0.8-0.7-1.4-1.4-1.8c-1.3-0.4-2.7,0.3-3.1,1.6v0.1c-0.1,0.5,0,0.8,2,4.7c1.2,2.3,1.7,3.2,2.7,3.6
		C161,805.6,161.5,805.7,162,805.7z"/>
	<path class="st12" d="M873.2,226.3c-3.3-11.1,124.3-92.8,278-96.1c136.4-2.9,238.3,57.2,283,87.9c-16.4,3.1-30.1,5.8-40.1,7.8
		c-67.2,13.1-93.9,19-123.4,26.4c-3.7,0.9-7.2,1.9-7.2,1.9c-23.1,6-23,7.2-47.1,13.1c-14.9,3.7-26.6,6.2-48.4,11.9
		c-7.5,2-12.9,6.8-21.2,5.8c-4.8-0.6-6.9-2.3-21.3-7c-2.2-0.7-4.8-1.5-10-3.2c-23.5-7.3-44.3-13.2-44.3-13.2
		c-24-6.6-44.1-11.7-59-15.3c-21.7-5.2-32.8-7.9-46.6-10.3c-19.3-3.2-38.7-5.5-58.2-6.7C877.1,229.5,873.7,228.1,873.2,226.3z"/>
	<path class="st13" d="M-19.9,532.9c6.5,9.4,26.5,8.8,66.1,7.3c40.5-1.6,67.4-6.4,80.1-20.8c3-3.4,6.3-7.2,6.2-12.3
		c-0.2-7.8-8.5-11.5-11.8-26.5c-0.1-0.5-0.2-0.9-0.3-1.6c-0.7-4-1.4-12-1.1-44.1c0.4-53.2,0.9-80.2,7-98
		c8.5-24.5,19.5-36.8,22.6-40.1c9.4-9.8,20.7-17.6,33.3-23.1c16.5-7.3,20.4-4,36.6-10.4c18.5-7.3,16.6-13,39-25.9
		s42.9-18.1,53.7-20.7c11.2-2.7,22.5-4.5,33.9-5.5c25.2-2.5,42.7-1.3,65.1,0c61,3.3,63.7,5.4,83.4,2.8c10.3-1.5,18.1-3.2,39.4-5.8
		c14.1-1.8,24.9-3.1,38.4-3.8c14.2-0.7,38.6-3.4,67.8,2.8c14,2.9,24.1,6.8,42.5,6.9c18.7,0.2,31.1-3.5,36.8-5.5
		c15.3-5.3,27.5-13.9,26.9-15.2c-0.9-1.8-22.5,12-51.4,13.3c-17.4,0.8-20.8-7.2-48-9.2c-12.3-0.8-22.6-0.4-22.9-2.3
		c-0.2-1.6,8.5-3.8,17.1-6.6c30.3-9.9,28.8-17.7,51.3-23.2c10.3-2.6,25.3-6.3,36.6-6.6c4.7-0.1,9.2-1,13.4-3c3-1.3,5.7-3.1,7.9-5.4
		c6.4-6.8,7.3-17.5,5.3-18.3s-4.2,9.7-14.4,16.6c-6.2,4.2-9.1,2.7-36.6,6.6c-17.7,2.4-22.7,3.9-28.1,6.6c-4.7,2.2-9.2,4.8-13.4,7.7
		c-3.2,2.2-8.6,4.4-19.5,9c-7.9,3.2-16.1,5.8-24.4,7.7c-11.3,2.6-19.9,3.3-29.9,4.2c-3.9,0.4-8,0.5-11.9,0.5
		c-6.7-0.2-7.9-0.9-15.3-1.3c-4.8-0.3-9.6-0.3-14.4,0c-3.4,0.2-2.8,0.2-16.9,1.6c-4.3,0.5-8.5,0.7-12.8,0.8c-3,0-6.1-0.2-9.1-0.5
		c-5-0.5-13.9-0.7-31.4-1c-11.3-0.2-19.6-0.4-31.9-0.5c-25.1-0.3-37.7-0.5-40.9-0.5c-19.1,0-16.3,0.4-42.6,0.5
		c-28.4,0.2-42.6,0.2-46.5,0c-20.4-1.4-20.1-0.1-22.4,0c-28.5,1.5-49.2,9.3-49.3,9s27-7.6,58.1-17.8c13.5-4.4,21.5-7.2,33.1-11.5
		c17.1-6.5,25.7-9.7,27.9-10.7c7.6-3.5,12.8-6.7,21.3-7.2c4.4-0.2,8.9,0.1,13.2,0.7c5.2,0.6,10.3,1.6,15.5,2.9
		c17,3.9,25.5,5.7,33.8,5.7c6.2,0.1,12.4,1,18.3,2.7c1.3,0.4,2.6,0.9,3.7,1.6c4.4,2.5,8.1,5.9,11,10c1.8,2.7,2.8,5.4,6,7.4
		c1.7,1,3,1.3,6.8,2.1c9.1,2.1,12.7,3.6,13,3c0.5-1-11.6-6.3-11-8.2c0.4-1.4,6-0.3,14.6,0.3c9,0.6,15.4,0.4,28.2-0.1
		c11.7-0.4,16.6-1.3,21.9-3.4c2.6-1.1,5-2.4,7.5-3.9c5.1-2.8,14.5-8.3,14.1-9.2c-0.6-1.3-22.4,10.3-40.2,10.7
		c-5.2,0.1-10.7,0-10.7,0c-6.5-0.1-6.9-0.3-14.6-0.5c-6-0.2-6.9,0-12.7-0.3c-9.6-0.3-11.3-0.8-12.7-1.4c-3.3-1.5-6.4-3.4-9.1-5.7
		c-2.9-2.5-3.8-4-6.7-5.2s-5.7-1.3-5.7-1.7s3.8-0.9,8.4-1.1c6.7-0.2,9.9,0.5,16.3,1.1c9,0.7,8-0.2,18.6,0.5c6.7,0.5,7.8,0.9,14,1.1
		c4.3,0.2,8.5,0.2,12.8,0c13.2-0.7,17.3-3.6,35.1-5.1l3.3-0.2c11.6-0.7,23.3-2.1,34.7-4.2c9.8-1.9,21-5,20.8-6
		c-0.2-1.3-19.1,0.4-22.6,0.7c-0.5,0.1-1.9,0.2-3.7,0.3c-3.6,0.1-6.1-0.2-15.1,0.1c-0.7,0-4.9,0.2-9.4,0.4
		c-9.8,0.6-16.1,1.5-22.8,2.2c-7.1,0.8-15.8,1.8-25.5,2.2c-10.1,0.4-10-0.2-33.5-0.4c-10.7-0.1-16-0.1-22.8,0
		c-5.1,0.1-12.5,0.3-23.3,0.4c-7.7,0.1-12.3,0-18.3-1.4c-4.5-0.9-8.7-2.7-12.5-5.2c-3-2-5.7-3.8-5.3-5.2c0.7-3.5,16.6-3.1,17.9-3
		c8.5,0.2,10,1.8,16.5,1.3c5.3-0.4,6.7-1.6,13.9-3.5c9.9-2.7,11.9-1.7,28.6-4.4c3.7-0.6,10.5-1.8,18.3-3.4c15.7-3.4,15.9-4.8,30-7.8
		c14.8-3.1,13.3-1.5,25.1-4.4c4.7-1.1,7.8-2.2,12.5-1.8c5.5,0.5,6.2,2.4,14.3,4.4c5.1,1.3,5,0.5,13.9,2.2c4.6,0.8,5.2,1.1,10.2,2.2
		c5.8,1.1,9,1.6,13,2.2c10.5,1.7,11.6,2.6,33.2,7c4.5,0.9,6.8,1.5,9.8,2c3.4,0.6,11.5,2.1,20.6,3c9.8,0.9,25,1.7,25.1,0.6
		c0.2-1.4-24.1-6.6-46.2-9.1c-6-0.6-11.9-1.6-17.8-2.9c-11.8-2.7-21.4-6.4-21.2-7.1s14.6,4.9,34.9,4.2c12.3-0.5,11-2.7,21.8-3
		c18.8-0.4,22.7,6.5,42.7,5.5c6.8-0.1,13.5-1.9,19.5-5.2c5.2-3.1,9.3-7.3,8.7-8c-0.7-1-9.2,6.9-22.7,8.6c-6.4,0.8-11.6,0-20.5-1.3
		s-12.8-2.8-17.8-3.9c-13.5-2.8-15.5,1.5-36.9,1.9c0,0-18.1,0.2-42.1-6.7c-7.6-2.2-7.7-3.4-7.7-3.8c-0.3-3.3,15.4-5,43.4-12.3
		c6.2-1.7,11.3-3.1,14.6-4.1c31.1-7,46.6-10.5,57.7-16.5c4.4-2.5,8.9-4.6,13.7-6.3c5.9-2.1,12.1-3.4,18.2-4.2
		c12.8-1.7,17-0.3,26.8-0.8c4.3-0.2,41.4-2.6,49.3-19.9c2.5-5.3,2.2-5.4,5.5-8.8c8.3-8.2,17.5-4.5,35.3-12c5.1-2.2,3.9-2.3,12.7-6.3
		c12.9-5.8,21.4-8.2,21.2-8.8c-0.2-0.7-11.3,1.9-22.6,5.7c-14.1,4.8-13.2,6.4-23.5,9.2c-11.4,3-14.4,1.7-22.3,5.8
		c-4.5,2.4-8.6,5.5-12.3,9.2c-4.5,4.5-4.6,6.4-7.5,9.4c-4.9,5.4-12.2,6.7-26.2,8.9c-9.4,1.4-18.8,2.2-28.3,2.6
		c-11.5,0.6-12.1,0.8-15.6,1.4c-10,1.6-15.8,3.9-16.6,2.3c-0.3-0.6,0.1-1.8,5.1-7s8.5-8.4,11.3-10.3c0.3-0.2,5.5-5.1,15.8-14.8
		c14.7-13.8,14.1-13.3,16-15c6.9-5.6,14.2-10.5,13.5-11.6c-0.2-0.3-1.1,0.1-4.7,0.1c-1.1-0.1-2.1-0.1-3.1,0.1c-1.3,0.3-2.6,1-3.5,2
		c-4.4,4-9.5,7.2-14,11.1c-5.8,5-4.6,3.4-10.8,8.4c-8.5,7-7.8,7.3-14.1,12.4c-7.8,6.1-8.7,5.4-14.8,11c-5.5,5-8.9,8.6-8.9,8.6
		c-1.6,2.3-3.5,4.3-5.8,6c-4.9,3.9-10.6,5.3-21.8,7.9c-16.4,3.9-17.7,4.2-21.3,5.1c-3.2,0.8-4.6,1.4-16.3,4.9
		c-21.4,6.6-19.9,6.1-21.3,6.6c-20.7,7-20.8,8.3-30.4,10.5c-7.9,1.9-8.9,1.6-24.9,3c-8.9,0.8-19.8,2.7-41.8,6.6
		c-21.8,3.9-19,3.9-37.2,7c-18.6,3.1-22,3.1-31.9,5.7c-15.5,4.2-24.2,8.6-24.7,7.5c-0.6-1.1,7.8-6,27.7-19.6
		c13.9-9.5,13.9-9.8,23.6-16.1c13.7-9,20.5-13.4,27.2-16.7c14.7-7.3,18.6-6.4,29.5-13.9c5.3-3.6,7.1-5.7,13-8.6
		c7.7-3.9,12.1-4,20.1-6.4c5.1-1.6,5.9-2.3,22.4-10.4c27.2-13.3,24.2-10.8,32.4-15.6C655,12.9,658.6,9.7,669,5.5
		c3.1-1.3,9.1-3.1,8.9-4c-0.1-0.4-2.1-0.2-4.5-0.1c-10.3,0.6-11-0.5-17.7,0.1c-4.3,0.4-8.5,1.4-12.7,2.7c-9.4,3-15.5,7.7-18.9,9.8
		c-14.2,8.6-25,13.1-41.4,21.4c-14.5,7.2-21.9,10.9-27.2,12.7c-11.4,4-15,3.3-24.7,7.5c-8.1,3.5-10.8,6.1-23,14.4
		c-16.1,10.8-15.8,9.1-33.6,20.7c-22.3,14.6-19.4,15.1-31.3,21.4c-14.2,7.5-27.3,11.6-36.6,14.4c-7.8,3.5-16.2,5.7-24.7,6.4
		c-2.7,0.2-5.8,0.2-7.7-1.8c-3.7-3.9-0.2-12.4,0.6-14.4c1.4-3.3,2.7-4.9,14.2-17.3c7.3-7.8,9.2-9.8,12.4-12.7c3-2.7,6.2-5.2,9.5-7.5
		c4.3-3,6.6-4.8,10-6.4c4.4-2.1,5.9-1.8,14.7-4.1c2.3-0.6,6.8-1.9,16-4.6c11.7-3.5,22.9-6.9,36.6-12.1c10-3.9,16.5-6.5,24.7-10.9
		c6.4-3.5,12.6-7.6,18.3-12.1c4.8-3.8,9.3-7.8,13.5-12.1c0,0,3-3,13-15.3c-5-0.1-10,0.5-14.9,0c-1-0.1-1.9,0-2.9,0.2
		c-1,0.4-1.9,1-2.7,1.8c-10.3,8.8-7.9,6.4-9.5,7.9c-14.7,13.6-14.7,13.9-17.2,15.8c-6.7,5.4-12.7,8.3-19.1,11.7
		c-6.9,3.4-14.1,6.5-21.4,8.9c-9,2.9-9.9,2.3-16.6,5.1c-4.1,1.8-8.2,3.3-12.4,4.6c-4.7,1.4-8.3,2.5-9.1,1.4c-0.9-1.3,3.1-5,8.1-9.8
		c6.1-5.7,11.4-9.9,14.7-12.5c7.4-5.7,11-8.5,13.3-10.2c5.9-4.1,18-12.2,28.6-20.5c0,0,4.5-3.5,3.8-4.5c-0.3-0.4-1.8,0.2-5.3,0.1
		c-0.6,0-1.2-0.1-1.3-0.1c-3.8-0.3-11.1,7.5-15.3,10.7c-4.5,3.4-3.7,1.9-15.5,9.4c-3.7,2.3-7.4,4.7-10.9,7.4c-4.9,4-6.5,6.4-13,13.1
		c-3.1,3.2-5.9,5.8-11.3,11c-8.5,8.1-28.7,26.5-30.7,24.7c-1.2-1,3.9-8.3,6.9-12.3c4.1-5.1,5.3-5.1,10.1-10.7
		c3.9-4.6,3.7-5.3,10.1-14c4.8-6.4,5.4-6.8,9.4-12c5.2-7,8.9-12.8,11-16.4c4.2-6.9,7.3-10.3,6.3-11.3c-0.2-0.2-0.5-0.1-2.3,0
		c-2.8,0.2-3.2-0.1-7.1,0.1c-1.9,0.1-2.2,0.2-2.6,0.3c-1.7,0.8-1.9,2.8-2.7,4.5c-1.2,2.7-1.9,2.6-5,7s-2.3,4.4-5,8.1
		c-2.7,3.8-3.2,3.5-7.1,8.5c-2.9,3.6-2.9,4.2-6.4,8.9c-3,4-5.3,6.8-7.7,9.6c-4.4,5.2-5.7,6.4-11,12.5c-3.7,4.3-3.7,4.6-7.5,8.9
		c-7.6,8.9-12.3,14.4-18.9,20.5c-7.6,7.1-7.9,5.8-11.5,10.1c-2.8,3.2-4.4,6.1-7.8,6.9c-2.7,0.5-5.3-0.1-7.5-1.8
		c-4.5-4,1.8-11.6,2.2-27.1c0.2-7.1-1-6.7-1.3-20.3c-0.1-8.1-0.1-12.2,0.9-15.7c4.1-15.7,20.6-22,19.5-23.6
		c-0.8-1.8-22.8,5-26.8,17.4c-1.2,4.2-2,8.3-2.6,12.6c-0.5,3.9-0.6,6.8-0.6,7.6c-0.4,7.4-2.3,15.1-4.8,26
		c-4.5,20.7-6.7,31.2-10.5,37.2c-6.3,10.2-14.3,16.1-19,19.5c-5.2,3.8-7.7,4.6-29.4,14C244.4,163,240,165,237.7,163
		c-3.8-3.6,2.9-16.3,7.6-25.1c5.1-9.5,8.1-10.1,16.2-23.2c4.3-7,4.1-7.7,8.5-14.9c4.1-6.5,8.5-12.6,13.3-18.5
		c6.3-8,12.5-15.7,21.9-24.2c7-6.1,14.5-11.8,22.5-16.7c11.3-7.2,11.8-6.1,32.7-18.1c12.7-7.3,13.7-8.3,20.4-11.6
		c12.9-6,21.1-8.2,20.9-9.2c-0.2-0.7-5.3,0.3-17,0.1c-3.3,0-2.8-0.1-3.9-0.1c-8.1,0.2-13.4,4.1-31.4,15c-7.9,4.8-7.9,5.2-21.8,14.2
		c-19.2,12.4-18.5,11-24.5,15.5c-11.5,8.5-19.2,17.1-27.7,26.6c-13.3,14.9-19.4,24.7-21.8,23.5c-1.9-0.9,1.1-7.5,1.8-19.5
		c0.5-7.8-0.5-8.3-1.9-24.8c-1.8-22.4-2.8-33.5-1.7-38.1c0.4-1.8,2.3-10.4-0.3-11.8c-1-0.1-1.9-0.1-3-0.1c-2.6,0-3.3,0.1-5.3,0.1
		c-0.9-0.1-1.6-0.1-2.5,0c-2.3,0.8-2.2,6.4-2,13.5c0.4,14.9,0.5,15.8,0.4,20c-0.3,16,0,9.8-0.4,25.7c-0.3,12.3-0.5,18.5-1,22.6
		c-0.5,7.8-1.9,15.5-4.1,23c-2.7,9.7-6.9,18.9-12.7,27.1c-4.5,6.4-9,10.3-17.7,18.2c-7.7,7-13.4,11-24.5,19.1
		c-18.3,13.2-20.7,13.2-21.8,12.4c-2.3-1.7,1-7.2,3.2-21.3c1.3-8.9,1.7-17.7,1.4-26.7c-0.3-12.6-1.9-12.8-1.8-24.8
		c0.1-7.7,0.7-7.6,1-18.6c0.1-9.3-0.2-11.1,1-15.1c1.4-4.6,3.4-7.4,8.7-14.4c7.8-10.3,11.7-15.4,12.8-16.9
		c3.7-5.1,13.4-18.4,17.3-28.7c1.5-4,1.8-6.7,4.5-11c1.8-2.9,2.7-4.3,2.2-4.8c-0.2-0.2-0.3,0-1.8,0c-1.3,0-2.1-0.1-3,0.4
		c0,0-0.3,0.7-1,2.3c-2.3,5.4-6.3,12.3-6.3,12.3c-2.1,7.4-6.3,12.7-14.4,23.2c-1.8,2.4-5,5.8-11.4,12.7
		C156.5,66.2,153.7,66.1,150,73c-2.7,5.1-4.7,10.5-6.2,16.1c-1.3,5.5-1.5,9.7-2.2,9.7s-1.1-3.4-2.8-14.2c-2-12.7-2.5-14.9-3.2-17.3
		c-1.6-5.3-2.6-7.9-3.3-9.9c-1.1-3-1.7-4.4-2.2-6c-0.2-0.9-0.4-1.9-0.5-2.9c-0.4-3.8-0.2-7.5,0.5-11c1.7-7,5.7-13.3,11.1-18.2
		c0.3-0.3,1.8-1.6,3.8-3.2c3.2-2.8,3.6-3.1,4.1-3.4l0.3-0.3c2.2-1.6,4.6-3,7-4.3c5.3-2.7,11.1-4.6,17-5.5c5.3-0.5,6.6-0.8,6.6-1
		s-4.2-0.3-7.7-0.1c-0.7,0-1.3,0.1-2.1,0.2c-2.7,0.3-5.3,0.8-8,1.6c-5.1,1.4-5.9,1.7-12.8,4.7c-4.4,1.9-5.8,2.8-6.7,3.6
		c-1.3,1.1-1.8,1.8-3.4,3c-1.6,1.3-5,3.3-5.5,2.7c-0.9-0.8,3.1-7.1,7.7-11.9c1.2-1.3,3.3-3.2,2.9-3.9c-0.2-0.4-1.3-0.1-3.6,0.1
		c-1.2,0-2.5,0-3.6-0.1c-3.4,0.1-6.6,9.7-9.9,21.6c-5.1,18.5-5.2,20.9-4.8,23.6c0.7,4.9,3.4,14.1,3.6,15c3.5,12.2,4.5,40.9,2.6,41
		c-1.4,0.1-0.4-14.3-8.7-29.5c-0.2-0.3-1.8-3.5-5.2-10.1c-2.6-4.6-4.4-9.5-5.3-14.6c-0.1-0.3-0.1-0.6-0.1-0.8
		c-0.5-3.6-0.5-7.4,0-11.1c0.5-4.1,1.5-8,3-11.9c1.7-4.8,2.6-7.4,4.8-10.4c2.5-3.1,5.2-6,8.3-8.5l0.4-0.4c3.5-2.9,4.3-3.2,4.2-3.5
		s-0.9-0.4-6.8-0.4h-2.2c-3.7,0.3-6.5,4.2-7.9,6.1c-8.2,12.2-11.4,27.2-11.7,28.9c-0.6,2.6-1,5.3-1,8c0.1,7,2.6,11.6,1.8,11.8
		c-0.9,0.3-3.9-4.5-5.8-8.6c-2.2-4.6-3.5-9.5-3.8-14.6c0-1.3,0-4,0-5.1c0-3.3,0.1-4.7,0-7.1c-0.1-2.2-0.4-4.4-1-6.6
		c-1.3-6.9-1.8-5.8-2-8.9c-0.1-1.5,0-3.5-1.1-4c-0.4-0.1-0.7,0.1-1.8,0.1c-1.2,0-1.6-0.3-1.8-0.1c-1,0.5,0.9,5.1,1.8,8.4
		c0.5,1.7,0.9,4.9,1.4,11.4c1.5,16.4,0.9,17.1,0.4,17.2c-1.4,0.4-4.1-3.4-5.3-6.4c-0.6-1.3-1-2.6-1.8-10C80,11.1,80,6.1,80.1,4.8
		c0-0.5,0-0.8,0-1.5c0-0.3,0.2-1.4-0.3-1.9c-0.4-0.3-0.9,0-2.5,0c-1.3,0-1.3-0.1-1.6,0c-1.3,0.6-1.1,3.6-0.9,6
		c0.3,4.4,0.9,7.6,1.1,8.5c1,5.7,0.5,4.8,1.4,9.5c1,5.2,1.4,7.8,2.7,10.9c1,2.2,2,4.3,3.4,6.3c5.3,8.3,6.3,10.8,10.8,15.8
		c5.2,6,7.5,6,11,11.7c0.9,1.3,2.1,3.6,3.5,5.8c3,5,3.4,5.7,4.5,7.8c3.6,7,4.1,14,4.5,20.5c0.3,4.3-0.1,4.1,0,9.8
		c0.1,5.7,1,16.6,1,16.6c0.5,6.4,0.5,12.7,0,19.1c-0.5,6.5-1.7,12.8-3.5,19.1c-1.3,5.5-3.2,10.9-5.5,16.1
		c-2.9,6.4-6.8,12.3-11.5,17.6c-4.9,5.4-7.7,7.7-10,7.3c-6.2-0.9-7.3-18.9-13.5-74.7c-2-18.8-2.1-18.2-2.2-21.3
		c-1.3-24.7,2.3-39.8-0.2-58.3c-0.2-1.5-0.5-5.7-1.5-11.7c-0.9-5.6-1.3-11.4-1.5-17.1c0,0-0.2-3-0.5-18.5c0.1-1,0.4-2.1,0.7-3
		c0.7-2,1.4-2.7,1.1-3.3c-0.6-1-3.8-0.4-4.3-0.3c-3.4,0.7-1.8-0.7-30.4-1.3C13.5,0,17.6,1,4.7,0.4C-11.8-0.3-16.4-1.8-20,1.7
		c-3.1,3-1.5,7.1-1,22.4c0.2,6.6,0,13.2,0,19.8V363c0,31.6,0.1,63.2,0,94.8c0,8,0.1,15.9,0,24C-21.6,522-24.1,526.7-19.9,532.9z"/>
	<g>
		<path class="st14" d="M-1.1,380c10.3-10.9,24.3-28.5,33.5-52.2c6.4-16.5,16.4-43.3,6.1-76c-8.2-26.1-25.8-44.6-38.3-55.3L-1.1,380
			z"/>
		<path class="st6" d="M-1.1,359c8.1-8.4,19.2-22,26.5-40.3c5.1-12.7,13-33.4,4.8-58.6C23.8,240,9.9,225.7,0,217.4L-1.1,359z"/>
	</g>
	<path class="st4" d="M332.1,181.6c1.7,0,4.7,0,4.9,0.9c0.2,1-4.1,1.6-7.5,5.4c-2.1,2.4-2.9,4.9-4,7.7c-1,2.6-1.3,4.6-1.9,9.2
		c-0.8,6.6-1.1,10.5-1.5,14.1c-1,9.5-1.5,8.9-2.3,17.3c-0.1,1.7-0.4,5.7-0.9,13.6c-0.2,2.8-0.3,4.9-0.4,6.5
		c-0.2,2.9-0.3,5.1-0.3,5.6c-1.5,26.2-2.2,39.4-2.5,42.9l0,0c-3.3,35.1-3.2,57.9-2.2,66.6c0.9,7.3,2.2,15.5,2.2,15.5l0,0
		c1,5.8,2.4,15.5,4.2,32.4c-0.4,3.8-0.8,6.6-1.5,6.6c-2.2,0.1-4.2-32-6.4-32c-1.2,0-1.6,9-2.6,26c-0.6,8.2,0.1,16.5,2.2,24.5
		c0.8,2.6,1.5,3.9,1.5,6.2c0,2.9-1.2,5.8-2,5.8c-0.6,0-0.9-2-1.4-4.4c-0.5-2.7-1.3-5.4-2.3-8c0,0-0.7-2.2-1.4-5.5
		c-2.4-11-2.4-39.9-2.4-40.5l0,0c0-0.1,0-0.3,0-0.5c0-0.6,0.1-1.5,0.1-2.5c0-1.5,0.1-3,0.3-10.5c0.2-6,0.5-15,1.3-29.6
		c1.4-26,1.1-24.6,2.1-41.1c0.8-13.4,1.6-25.9,2.3-36.3c0.7-11.1,1.1-16.7,1.6-23.2c0.7-10.2,1.3-16.7,2.1-29.5s0.9-15.3,1-17.6
		c0.1-5.1,0.1-8.4,0.1-9.2c0-2.2,0.1-10.3,5.2-14.2C323,181.6,326.6,181.6,332.1,181.6z"/>
	<path class="st4" d="M463.3,183.7c3.4-2.7,10-0.6,10.1,1c0.1,0.8-1.8,0.8-3.6,2.4c-3,2.7-3.1,7.3-3.1,9.7c0,0,0,55-0.1,63.4
		c0,1.5-0.1,3-0.1,3c-0.1,2.7-0.1,4.1-0.3,10.6c-0.3,14-0.3,30.7-0.3,30.7c0,12.6-0.1,30,0.3,53.1c0.4,22,0.7,25.9,0.8,41
		c0,3.4,0.1,14,0.4,22.3c0,1,0.2,5.1,0.4,10.8c0,1.6,0.1,3.4,0.1,5.6c0.1,4.2-0.1,10.7-0.1,19.3l0,0c-2.5-2.5-4.3-5.7-5-9.2
		c-0.4-2-0.2-3.2,0-7.9c0.2-3.5,0.2-7,0.4-10.5c0.6-11.5-1.6-34.1-3.1-34.1c-0.7,0-1.1,4.9-1.9,13.9c-1.3,14.5-0.9,21.9-1.9,22
		c-0.8,0.1-2-4.9-2.4-9c-0.2-2.3-0.2-4.6,0-6.8c0.2-6.9,0.4-9.5,0.4-9.5c0.6-7.7,0.9-15.5,1.5-23.2c0.8-10.2,1.4-18.9,1.6-21.5
		c0.5-7.1,0.9-14,1.8-51.6c0.4-17,0.3-14.5,0.6-28.9c0.3-14,0.6-22.2,0.9-36.7c0.2-10.7,0.2-15.5,0.2-18.1c0-6.8,0-12.2-0.1-22.2
		c-0.5-4.1-0.5-8.2-0.1-12.3C461.4,185.8,462.3,184.5,463.3,183.7z"/>
	<path class="st15" d="M329.1,221.3c-4.1,5-16,4.1-18.5-0.9c-0.9-1.7-0.8-4.1,0.4-5.3c0.9-0.9,3-0.9,7.1-0.8c1.1,0,2.2,0.1,4.1,0.2
		c7.2,0.5,7.8,0.9,8.2,1.4C331.2,217.4,330.3,219.9,329.1,221.3z"/>
	<path class="st16" d="M329.7,208.2c-3.7-5.3-15.7-5.1-18.5-0.4c-1,1.6-1.1,4,0,5.3c0.8,1,2.9,1.1,7,1.2c1.1,0.1,2.2,0.1,4.1,0.1
		c7.2,0,7.9-0.4,8.3-0.9C331.5,212.3,330.8,209.8,329.7,208.2z"/>
	<path class="st15" d="M472.3,221.2c-4.1,5-16,4.1-18.5-0.9c-0.9-1.6-0.8-4.1,0.4-5.3c0.9-0.9,3-0.9,7.1-0.8c1.1,0,2.2,0.1,4.1,0.2
		c7.2,0.5,7.8,0.9,8.2,1.4C474.4,217.3,473.5,219.7,472.3,221.2z"/>
	<path class="st16" d="M472.9,208.1c-3.7-5.3-15.7-5.1-18.6-0.4c-1,1.6-1.1,4,0,5.3c0.8,0.9,2.9,1.1,7,1.2c1.1,0.1,2.2,0.1,4.1,0.1
		c7.2,0,7.9-0.4,8.3-0.9C474.7,212.2,474,209.7,472.9,208.1z"/>
</g>
</svg>
