<svg id="Layer_1" data-name="Layer 1" xmlns="http://www.w3.org/2000/svg" width="512" height="512" viewBox="0 0 512 512"><defs><style>.cls-1{fill:#fff;}</style></defs><path class="cls-1" d="M481.12,199.49H373.29L274.69,51.81A22.37,22.37,0,0,0,256,42.36,22,22,0,0,0,237.31,52l-98.6,147.45H30.88A22.58,22.58,0,0,0,8.37,222a18.78,18.78,0,0,0,.9,6.07L66.45,436.77a44.76,44.76,0,0,0,43.22,32.87H402.33a45.24,45.24,0,0,0,43.45-32.87L503,228.08l.67-6.07A22.58,22.58,0,0,0,481.12,199.49ZM256,104.94l63,94.55H193ZM402.33,424.62l-292.43.22L60.37,244.52H451.86Z"/></svg>