<svg id="Layer_1" data-name="Layer 1" xmlns="http://www.w3.org/2000/svg" width="370" height="295.99" viewBox="0 0 370 295.99"><defs><style>.cls-1{fill:#fff;}</style></defs><path class="cls-1" d="M354.65,257.59l-152-114V127.52A61.77,61.77,0,0,0,245.61,56c-4.59-23.15-23-42.41-46.12-47.71A62,62,0,0,0,123.15,68.5h35.34a26.51,26.51,0,1,1,26,26.51c-9.54-.18-17.14,7.95-17.14,17.49v31.11l-152,114C1.74,267.84,9,289.4,26,289.4h318.1C361,289.4,368.26,267.84,354.65,257.59ZM79,254.05l106-79.52,106,79.52Z"/></svg>