<svg id="Layer_1" data-name="Layer 1" xmlns="http://www.w3.org/2000/svg" width="424.12" height="424.12" viewBox="0 0 424.12 424.12"><defs><style>.cls-1{fill:#fff;}</style></defs><rect class="cls-1" width="424.12" height="424.12"/><path class="cls-1" d="M381.71,321.63l-152-114V191.56A61.78,61.78,0,0,0,272.67,120c-4.59-23.15-23-42.41-46.12-47.71a62,62,0,0,0-76.34,60.26h35.34a26.51,26.51,0,1,1,26,26.51c-9.54-.18-17.14,7.95-17.14,17.49v31.1l-152,114c-13.61,10.24-6.36,31.8,10.61,31.8H371.11C388.07,353.43,395.32,331.87,381.71,321.63ZM106,318.09l106-79.52,106,79.52Z"/></svg>