<svg xmlns="http://www.w3.org/2000/svg" viewBox="0 0 1124.97 1083.2"><defs><style>.cls-1{fill:#004f17;}.cls-2{fill:#5c1d00;}.cls-3,.cls-8{fill:#ffd9c9;}.cls-3{opacity:0.97;}.cls-11,.cls-12,.cls-13,.cls-4{fill:#fff;}.cls-5{fill:ivory;}.cls-6{fill:#ffffd7;}.cls-7{fill:#ffffed;}.cls-9{fill:#ffcbbc;}.cls-10{fill:#ffbfb4;}.cls-11{opacity:0.99;}.cls-12{opacity:0.98;}.cls-13{opacity:0.89;}.cls-14{fill:#fffce3;}</style></defs><g id="Layer_8" data-name="Layer 8"><rect class="cls-1" width="1123.6" height="1080"/><path class="cls-2" d="M273.75,361.65c-1.21-.08-10.1-.6-15.2,5.63-3,3.67-3.42,8.11-3.65,10.56-.4,4.3.43,7.29,1.07,10.28,1.18,5.49,1.4,11.57,1.83,23.73.53,14.93-1,16.22.85,17.94,4.82,4.47,15.62-3.74,41-12.78,21.35-7.62,27.86-6.85,29.23-11.28C330.6,400,323,388.37,273.75,361.65Z" transform="translate(1.37 0)"/><path class="cls-3" d="M0,943.26c5.33,6.21,9.21,7,11.62,6.73,10.34-1.15,19.64-24.67,15.16-44.1-1.62-7-4.23-8.4-8.87-15a100.1,100.1,0,0,1-6.84-11.47c-5.25-9.81-8.28-15.4-10-23.06-1-4.72-1-9.42-1.08-18.82,0-5.92.26-18,.09-21.91-.07-1.59,0-3.18-.12-4.77-.08-1.28-.15-1.66,0-1.72.57-.21,2.63,5.25,6.86,11.63C8,822.58,9.08,824,9.79,824.9a239.51,239.51,0,0,0,30.4,42.36c6.31,7,8.6,8.91,10,9.68,16.14,8.77,39.86,11.38,59.27,0,21.07-12.35,29.3-36.62,28.94-55.13-.28-14.85-6.08-25.24-41.34-68.91-44.74-55.41-55.11-63.09-68.92-91A233,233,0,0,1,8.87,604c-3.69-18.89-7.7-51.89-1.38-53.75,5.59-1.65,14.47,22.53,38.59,63.4,10.33,17.52,24.35,37.41,52.37,77.19,40.36,57.27,50.17,67.32,66.16,75.8,11,5.83,36.19,19.2,59.27,8.27,18.48-8.75,24.47-27.82,24.81-28.94,4.05-13.65.55-26.7-9.65-48.24-15.54-32.84-31.08-52.58-41.35-67.54-8.12-11.84-19.2-36.37-41.35-85.45-26.45-58.62-21.85-52.65-53.75-125.43C96.13,404.61,78.67,365,61.24,311.85c-8-24.22-12.65-41.36-9.65-42.73,3.16-1.44,13.57,15.13,16.85,20.35C91.75,326.55,99.7,358.57,122,422.25a200.16,200.16,0,0,0,27,52.41c11.07,15.29,21.42,22.2,32.2,26.17A61.85,61.85,0,0,0,205,504.46c2.66-.11,26-1.43,40.25-16.65,8-8.48,12.72-20.86,10.44-65.49a551.66,551.66,0,0,0-8-70.45c-9.85-54-21.5-95.31-17.48-96.68,3.78-1.29,11.56,36.15,33.58,40.32,15.53,2.94,36.26-11,38.25-26.17,1.94-14.74-14.77-22.27-58.38-60.39-46.59-40.73-50.42-52.16-74.47-58.37-28.49-7.36-54.19.65-58.38,2-25.58,8.3-31.58,21.85-58.37,32.21a127.6,127.6,0,0,1-52.34,8Z" transform="translate(1.37 0)"/><path class="cls-2" d="M445.81,561.83c3.61.66-4.9,32.13-7.57,82.12-1.32,24.69-.37,38-9.51,42.84-6.83,3.62-18.15-.91-40.49-10.11-24.23-10-26.39-14-46-20.85-17.74-6.18-28.69-7.28-28.51-9.77.22-3,16.46-2.26,42.77-8.11,15.15-3.37,26.62-6,39.63-13.4a103.88,103.88,0,0,0,26.95-22.35C441.2,581.11,443,561.31,445.81,561.83Z" transform="translate(1.37 0)"/><path class="cls-4" d="M457.44,466.17" transform="translate(1.37 0)"/><path class="cls-5" d="M530.64,332.32c36.34,8.54,40.65-2.86,68,6.7,10.95,3.84,37.5,15.21,60.5,49.34,7.78,19.39,15.34,47.2,12.73,79.89-2.28,28.56-11.07,45.29-14.36,51.06-2.74,4.82-20.16,35.43-35.79,32.58-9.7-1.77-8.9-14.61-24.55-33.29-9.63-11.5-18.85-17.27-37.29-28.81-21.51-13.46-33.43-20.92-51.69-25.85-3.62-1-44.38-11.79-50.11-21.12a3,3,0,0,1-.56-1.18c-.6-3.43,6.85-7.81,14.87-20.78,6.67-10.77,9.06-19.93,11.25-28.33,2-7.55,2.68-13.77,4.1-26.21,2.64-23.34,1.31-27.42,7.15-31.16C507.09,327.32,526.45,331.34,530.64,332.32Z" transform="translate(1.37 0)"/><path class="cls-6" d="M432.42,449.57c-5.15,8.2,4,15.27,9.7,38.74,5.13,21.29,1.38,46.05-6.11,95.58-7.23,47.8-5.6,48-5.47,53.32.43,16.86,2.82,27.33-2.44,43-4.07,12.16-8.86,15.9-7,20.74,4.69,12,41.66,8.13,59.05,6.12,56.05-6.49,91.21-10.22,116.14-39.37,15.68-18.33,21.8-39.83,25.59-53.14,4-14,9.82-35.39,5.16-62.54-3.82-22.3-12.9-37.69-17.72-45.81-6.72-11.29-21-35.27-49-48.85-10.83-5.26-24.27-7-50.71-10.12C462.72,441.64,439.12,438.92,432.42,449.57Z" transform="translate(1.37 0)"/><path class="cls-7" d="M434.33,585.42a130,130,0,0,1-26.79,30.14c-8,6.5-50.08,39.31-107.16,28.46-51.78-9.84-78.85-48.57-87.07-61.95-8-13.07-29-47.22-18.28-84.48,9.37-32.48,37.54-48.88,70.19-67.88,20.12-11.71,41.25-24,72-25.12,9.54-.34,37.74-1,67,16.75,7.88,4.77,32.12,19.91,45.2,50.23a98.33,98.33,0,0,1,3.71,10C468.52,531.69,438.17,579.46,434.33,585.42Z" transform="translate(1.37 0)"/><path class="cls-4" d="M286,729.51c6.21-3.13,4.17-20.93,0-32.83C281,682.36,272,674,261,663.85c-12.81-11.87-21.62-20-29.71-17.2-6.45,2.25-10.6,10.86-10.18,18.06.37,6.22,4,9.36,13.31,19.46,17.94,19.53,16.7,21.3,28.14,31.27C273.81,725.26,281.38,731.85,286,729.51Z" transform="translate(1.37 0)"/><path class="cls-8" d="M578.55,1080c3.35,4.59,384.57,3.93,545.05,0h0s-.85-22.32-.31-74.28c0,0-11.08-1.45-19.12-2.24-18.82-1.87-39-2-48.36-2.55h0c-6.35-.21-10-.51-10-.51-6.73-.59-72.37,1.7-111-2-19.64-1.87-32.94-5.26-59.41-12.51-37.13-10.16-67.2-18.39-100.07-39.08-7.86-5-3.57-2.87-37.52-26.58-18.41-12.87-25.33-17.43-50-34.4-49.62-34.09-47-33.08-50-34.4-28.61-12.59-45-8.31-73.49-26.57a210,210,0,0,1-17.19-12.51,221.77,221.77,0,0,1-32.84-32.83c-16.63-19.82-34.93-32.74-59.41-50-24.7-17.44-20.58-10.17-79.51-44.84,0,0-14.41-8.48-54.95-28.64-12.34-6.14-26.5-11.92-45.05-11.82-9.79,0-15.65.08-19,4-7.27,8.39,2.24,28.16,29.52,75.32,13.76,23.78,25.46,43.17,47.79,79.63,38.93,63.56,31.23,50.16,45.64,74.13,9.44,15.71,12.36,20.82,18.79,30.3,14.55,21.44,26.09,38.44,45.44,54,15.26,12.27,16.65,8.58,35,23.48,15.33,12.43,13.31,14.13,33.09,30.84C534,1034.84,544.7,1043,544.7,1043c1.86,1.42,4.85,3.68,8.48,6.93,1.25,1.12,3.14,2.86,5.21,5,3.78,3.84,6.57,7.26,12.63,15.18C574.8,1075,576.68,1077.45,578.55,1080Z" transform="translate(1.37 0)"/><path class="cls-8" d="M1123.6,938.43c-18.59-18.72-39.87-40.19-63.4-64-46.85-47.4-58-58.91-72.4-75.77-19.49-22.83-38.31-44.94-52.2-69C923,707.7,867.54,613.14,904.87,568.54c19.44-23.24,58.22-25.95,82.9-20.26,18.57,4.28,32.29,15.1,59,36.56,16.12,13,21.35,20.77,52.2,48.83,10.44,9.5,19.11,17.08,24.67,21.89Z" transform="translate(1.37 0)"/><path class="cls-9" d="M713.78,906.64c-2.1,2.31-18.73-13.4-46.34-29.76C635,857.68,627,861,584.8,838.37c-34.27-18.39-45.51-29.45-49.23-33.25a147.09,147.09,0,0,1-29.41-44.66c-8.48-19.92-17.17-40.31-8.4-52.45,6.52-9,15.69-3.83,46.84-13.38,25.2-7.73,29-14.13,38.92-11.13,8.18,2.48,14.79,13.72,28,36.22a346.94,346.94,0,0,1,18.39,36.68c2.25,5.2,4.48,10.76,6.7,16.85,7.85,21.49,3.68,30.34,13.39,46.85,1.83,3.12,1.84,2.68,20.35,26.91.76,1,7.31,9.65,20.4,27C712.12,902.21,714.69,905.65,713.78,906.64Z" transform="translate(1.37 0)"/><path class="cls-10" d="M645.51,743.4c17.39-2.62,31.9,7.59,40.11,13.37,7,4.91,24.72,17.4,32.09,40.11,3.67,11.34,1.37,14.77,0,48.13-1.69,40.87.86,57.78-4.28,59.08-3,.76-5.23-4.8-20.66-26.13-3.56-4.92-12.19-16.22-29.45-38.82-11.28-14.77-12-14.76-14.32-19-7.42-14-4-18.27-10.72-36.36s-13.75-23.15-10.67-30.29C630.9,745.83,642.06,743.92,645.51,743.4Z" transform="translate(1.37 0)"/><path class="cls-4" d="M905.16,584.33c1.06,8.73,4,17.27,11.42,29.68,15.34,25.52,28.35,47.17,52.51,52.51,19.15,4.23,36.2-3.8,51.2-10.86,17.11-8.06,36.3-25.72,36.19-25.84l-.07,0c-1.67.83-14.53-29-36.12-52.89-6.31-7-12.81-12.4-25.8-23.22-19-15.82-25.87-18.9-31-20.65-6.55-2.24-15.88-5.44-27.09-2.58-16.2,4.14-24.17,17.85-25.8,20.65C902.79,564.66,904.4,578,905.16,584.33Z" transform="translate(1.37 0)"/><path class="cls-11" d="M173.67,483.36c-6.26-3.1-7.57-16-9.93-41.71-2.91-31.68-.14-36.81,2-39.72,7.44-10.21,22.17-14.21,33.77-11.92,12.58,2.5,19.24,12,31.77,29.79,8.89,12.65,13.34,19,11.92,25.82-1.15,5.54-5.19,8.84-33.76,23.84C181,484.36,177.28,485.15,173.67,483.36Z" transform="translate(1.37 0)"/><path class="cls-12" d="M175.65,654.16c-4.94,1.29-27.13,7.56-31.92,24.09-2.13,7.33.58,15.61,6.39,32A390.4,390.4,0,0,0,171.71,759h0s17.44,1.8,34.37-3.19c0,0,14.48-4.64,25.89-14.07.75-.62,1.4-1.24,2.09-1.92,5.88-5.87,9.8-9.07,10.39-14.39.77-6.94-4.43-11.17-16.79-25.58-16.59-19.36-14-19.63-22.38-27.18A103.33,103.33,0,0,0,175.65,654.16Z" transform="translate(1.37 0)"/><path class="cls-13" d="M47.71,771.47C43.2,773.63,36.21,777,31,784.83a36.33,36.33,0,0,0-5.56,23.39c.65,6.69,2.92,10.52,12.25,25.61,16.7,27,17.61,28,20,29,15.46,6,35.88-11.89,44.55-22.28,5-6,10.51-12.59,11.13-22.27.83-12.69-7.32-22.31-16.7-33.41C88.56,775.2,83.55,769.28,74.44,767,63,764.16,52.73,769.06,47.71,771.47Z" transform="translate(1.37 0)"/><path class="cls-14" d="M238.3,339a82.23,82.23,0,0,1,14.86-65.81c15.79-20.51,37.55-26.13,70.53-34.65a212.37,212.37,0,0,1,61.95-6.69,224.76,224.76,0,0,1,50.23,8.37c18.55,5.22,29.43,8.29,41.86,16.74,6.59,4.49,30,20.41,36.83,48.56,3,12.38.33,25.55-5,51.9-6,29.35-9,44-16.75,55.26-19.85,28.59-53.08,35.37-60.27,36.83-17.4,3.55-31.09,1.62-41.86,0-41.25-6.19-69.68-26.6-90.41-41.86C263.72,380.78,244.17,366.4,238.3,339Z" transform="translate(1.37 0)"/></g><g id="Layer_9" data-name="Layer 9"><path class="cls-2" d="M328.83,405.73c-.08,3.79,55.05-3.31,93.3,28.68a91,91,0,0,1,19.2,22.13c12.47,20.52,13.1,41,13.25,49,0,0,.1,5.59-5.19,42.8h0s17.37-36,9.54-68.56c-3.84-16-12-23.8-7.44-30.67,1.36-2,4.72-4.43,22.05-5.82,14.2-1.14,25.72.75,45.58,5.14,29.45,6.5,40.72,10.43,41.28,9,.67-1.73-13.75-11-31.85-16.55-30.94-9.47-56.68-3.1-57.79-8.26-.69-3.2,9.38-4.79,17.49-14,16.43-18.66,9.32-51,7.27-51.13-1.56-.08.92,18.84-11,38.53-4.84,8-10.82,19.34-23.86,23.85-9.47,3.28-18,.95-28.43-1.84-13.18-3.5-14.31-6.91-33.55-14.71-10.1-4.09-18.58-7.64-29.73-9.61C348.31,400,328.88,403.48,328.83,405.73Z" transform="translate(1.37 0)"/></g></svg>