<svg xmlns="http://www.w3.org/2000/svg" width="106.36mm" height="88.67mm" viewBox="0 0 301.5 251.34"><defs><style>.cls-1{fill:#744310;}.cls-2{fill:#f7e2a8;}.cls-3{fill:#010101;}.cls-4{fill:#e4d096;}.cls-5{fill:#fef2d5;}</style></defs><g id="Layer_2" data-name="Layer 2"><g id="Layer_1-2" data-name="Layer 1"><path class="cls-1" d="M151.4,0c7.58.13,12.3,40.72,12.72,44.42L137,43.63C137.59,39.83,143.86-.13,151.4,0Z"/><path class="cls-1" d="M264.47,188.31c-4.81,5.46-42-16.27-45.33-18.26l17.47-19.29C239.45,153.53,269.25,182.89,264.47,188.31Z"/><path class="cls-1" d="M34.44,189.87c-5.51-4.85,20.43-37.79,22.8-40.78l19.44,17.59C73.5,169.12,39.91,194.69,34.44,189.87Z"/><path class="cls-2" d="M301.5,89.42c0-44.71-38.95-81-87-81a89.84,89.84,0,0,0-63.75,25.88A89.84,89.84,0,0,0,87,8.46c-48,0-87,36.25-87,81,0,36.49,25.94,67.33,61.59,77.45q-.09,1.74-.09,3.51c0,44.71,39,81,87,81s87-36.25,87-81c0-.79,0-1.58,0-2.37C273.38,159.28,301.5,127.41,301.5,89.42Z"/><polygon class="cls-1" points="150.75 98.53 162.87 118.48 138.64 118.92 150.75 98.53"/><path class="cls-3" d="M150.76,99.51l5.64,9.27L162,118l-11.26.2-11.2.2,5.58-9.39,5.65-9.5m0-2-13,21.87,26-.46-13-21.41Z"/><path class="cls-4" d="M181,130.83c-1,1.17-18.28-5.6-25.94-20.54-5.38-10.48-4.48-22-3.06-22.26,1.24-.23,2.32,8.24,8.66,19.19C169.92,123.2,181.88,129.81,181,130.83Z"/><path class="cls-4" d="M112.17,126.68c-.69-1.35,13.36-12.91,31.14-12.85,12.49,0,23.25,5.78,22.89,7.09-.32,1.14-9-1.63-22.34-1.06C124.37,120.69,112.78,127.86,112.17,126.68Z"/><path class="cls-4" d="M152.05,67.65c1.61-.07,7.64,16.44.72,31.69-4.85,10.7-14.7,17.72-15.86,16.91-1-.71,5.08-7.09,9.67-18.78C153.28,80.42,150.65,67.71,152.05,67.65Z"/><path class="cls-5" d="M8.17,120.25c-4.3-9-9.47-24.65-4.67-27.57a3.41,3.41,0,0,1,2-.47c5.27.45,6.62,14.1,10.52,25.82,7.16,21.48,21.35,31.74,20,32.81S17.45,139.59,8.17,120.25Z"/><path class="cls-5" d="M105.59,238.93c-7.93-4.4-17.41-11.62-16.09-14.11.53-1,2.64-.95,3.5-.93,6.8.15,10.89,6,16,10.7,11.15,10.24,23.43,11.5,23,12.56S118.26,246,105.59,238.93Z"/><path class="cls-5" d="M5.5,67.09C8.66,57.43,14,49,15,49.41s-4,7.52-5,20c-.56,7.26.44,13.63-3.5,15.82A3.09,3.09,0,0,1,4,85.7C1,84.4,3.38,73.57,5.5,67.09Z"/><path class="cls-5" d="M75.5,210.86c2.94,4.57,8.67,12.11,11,11.17,1.3-.53,1-3.47,1-3.73-.42-4.07-4.09-6.35-7.5-9.3-8.11-7-10.13-13.91-11-13.49S71,203.78,75.5,210.86Z"/></g></g></svg>